<?xml version="1.0" encoding="utf-8"?>
<svg viewBox="0 0.1687 3082 866.5179" xmlns="http://www.w3.org/2000/svg">
  <defs>
    <clipPath id="clip0">
      <rect x="716" y="675" width="3082" height="998"/>
    </clipPath>
    <clipPath id="clip1">
      <rect x="716" y="675" width="3083" height="467"/>
    </clipPath>
    <clipPath id="clip2">
      <rect x="716" y="675" width="3083" height="467"/>
    </clipPath>
    <clipPath id="clip3">
      <rect x="716" y="675" width="3083" height="467"/>
    </clipPath>
  </defs>
  <g clip-path="url(#clip0)" transform="matrix(1, 0, 0, 1, -716, -675)">
    <path d="M 133.1 -122.54 L 133.1 -154.22 L 1.54 -154.22 L 1.54 -122.54 L 47.52 -122.54 L 47.52 0 L 86.68 0 L 86.68 -122.54 Z M 202.834 -120.34 C 183.034 -120.34 166.314 -115.5 147.834 -106.92 L 158.614 -81.84 C 171.154 -88.22 184.134 -91.74 194.034 -91.74 C 209.434 -91.74 217.134 -84.7 217.134 -73.04 L 217.134 -71.28 L 185.894 -71.28 C 156.414 -71.06 140.354 -57.86 140.354 -35.42 C 140.354 -13.64 155.754 1.76 181.054 1.76 C 197.114 1.76 209.654 -3.52 217.354 -13.64 L 217.354 0 L 254.534 0 L 254.534 -77.44 C 254.314 -104.28 235.394 -120.34 202.834 -120.34 Z M 192.714 -23.98 C 182.154 -23.98 175.994 -29.48 175.994 -38.06 C 175.994 -46.86 181.714 -50.82 193.154 -50.82 L 217.134 -50.82 L 217.134 -40.26 C 214.714 -30.58 204.594 -23.98 192.714 -23.98 Z M 333.287 -84.48 L 313.487 -118.58 L 269.927 -118.58 L 307.767 -60.72 L 267.287 0 L 309.087 0 L 333.287 -37.18 L 354.847 0 L 398.627 0 L 358.367 -60.94 L 395.987 -118.58 L 354.407 -118.58 Z M 535.027 -32.78 C 529.307 -30.36 524.247 -28.82 520.287 -28.82 C 513.247 -28.6 509.287 -32.56 509.287 -41.8 L 509.287 -88.22 L 540.307 -88.22 L 540.307 -113.3 L 509.287 -113.3 L 509.287 -146.08 L 471.447 -146.08 L 471.447 -113.08 L 454.947 -113.08 L 454.947 -88.22 L 471.447 -88.22 L 471.447 -35.86 C 471.447 -11.22 487.947 1.76 510.827 1.76 C 522.267 1.76 533.927 -1.32 542.507 -6.38 Z M 613.234 -119.9 C 576.494 -119.9 551.414 -95.7 551.414 -58.96 C 551.414 -22.88 575.614 1.32 614.334 1.32 C 636.114 1.32 653.934 -6.38 666.034 -19.58 L 646.014 -39.16 C 638.094 -31.24 627.974 -27.06 617.634 -27.06 C 603.554 -27.06 593.434 -34.98 589.694 -49.06 L 673.074 -49.06 C 675.714 -92.4 655.034 -119.9 613.234 -119.9 Z M 589.034 -69.52 C 591.454 -83.82 600.474 -93.5 613.674 -93.5 C 627.314 -93.5 636.554 -84.04 636.554 -69.52 Z M 745.124 -119.9 C 708.384 -119.9 683.524 -95.48 683.524 -58.96 C 683.524 -22.88 708.164 1.32 744.684 1.32 C 769.764 1.32 788.904 -8.8 798.584 -26.18 L 770.864 -42.46 C 765.804 -33.44 757.444 -29.04 746.664 -29.04 C 731.924 -29.04 721.804 -40.92 721.804 -59.18 C 721.804 -77 731.924 -89.1 746.664 -89.1 C 757.004 -89.1 765.144 -84.48 770.644 -76.78 L 797.924 -93.28 C 787.584 -110.22 768.664 -119.9 745.124 -119.9 Z M 896.037 -120.34 C 878.437 -120.12 864.577 -113.08 856.217 -99 L 856.217 -163.24 L 818.157 -163.24 L 818.157 0 L 856.217 0 L 856.217 -58.52 C 856.217 -74.8 865.457 -86.68 880.417 -86.68 C 893.397 -86.68 901.317 -78.1 901.317 -64.24 L 901.317 0 L 939.377 0 L 939.377 -74.8 C 939.377 -102.52 922.217 -120.34 896.037 -120.34 Z M 1043.874 -120.34 C 1026.274 -120.12 1012.634 -113.08 1004.274 -99.22 L 1004.274 -118.58 L 966.214 -118.58 L 966.214 0 L 1004.274 0 L 1004.274 -62.7 C 1005.814 -76.78 1014.614 -86.68 1028.474 -86.68 C 1041.234 -86.68 1049.374 -78.1 1049.374 -64.24 L 1049.374 0 L 1087.214 0 L 1087.214 -74.8 C 1087.214 -102.52 1070.054 -120.34 1043.874 -120.34 Z M 1169.277 -119.9 C 1130.337 -119.9 1104.377 -95.92 1104.377 -59.4 C 1104.377 -22.88 1130.337 1.32 1169.277 1.32 C 1207.997 1.32 1233.957 -22.88 1233.957 -59.4 C 1233.957 -95.92 1207.997 -119.9 1169.277 -119.9 Z M 1169.277 -89.76 C 1184.897 -89.76 1195.677 -77.22 1195.677 -58.96 C 1195.677 -40.48 1184.897 -28.16 1169.277 -28.16 C 1153.437 -28.16 1142.657 -40.48 1142.657 -58.96 C 1142.657 -77.22 1153.437 -89.76 1169.277 -89.76 Z M 1293.57 0 L 1293.57 -163.24 L 1255.51 -163.24 L 1255.51 0 Z M 1380.027 -119.9 C 1341.087 -119.9 1315.127 -95.92 1315.127 -59.4 C 1315.127 -22.88 1341.087 1.32 1380.027 1.32 C 1418.747 1.32 1444.707 -22.88 1444.707 -59.4 C 1444.707 -95.92 1418.747 -119.9 1380.027 -119.9 Z M 1380.027 -89.76 C 1395.647 -89.76 1406.427 -77.22 1406.427 -58.96 C 1406.427 -40.48 1395.647 -28.16 1380.027 -28.16 C 1364.187 -28.16 1353.407 -40.48 1353.407 -58.96 C 1353.407 -77.22 1364.187 -89.76 1380.027 -89.76 Z M 1578.468 -118.58 L 1540.628 -118.58 L 1540.628 -104.06 C 1532.708 -114.4 1520.828 -120.12 1505.648 -119.9 C 1475.948 -119.9 1455.488 -97.46 1455.488 -63.8 C 1455.488 -29.26 1476.608 -6.38 1506.528 -6.38 C 1521.268 -6.38 1532.928 -12.1 1540.628 -22.22 L 1540.628 -9.68 C 1540.628 5.06 1529.628 14.74 1511.368 14.74 C 1498.608 14.74 1485.408 10.34 1474.628 2.86 L 1461.428 28.6 C 1474.848 37.62 1493.548 44.22 1514.228 44.22 C 1552.508 44.22 1578.468 22.88 1578.468 -10.78 Z M 1515.988 -33.88 C 1501.028 -33.88 1490.908 -45.76 1490.908 -62.7 C 1490.908 -79.86 1501.028 -91.74 1515.988 -91.74 C 1530.728 -91.74 1540.628 -80.08 1540.628 -62.7 C 1540.628 -45.76 1530.728 -33.88 1515.988 -33.88 Z M 1721.464 -118.58 L 1683.624 -118.58 L 1657.884 -39.82 L 1628.844 -118.58 L 1589.684 -118.58 L 1638.964 -2.64 L 1636.104 3.3 C 1633.024 9.68 1628.184 12.76 1621.364 12.76 C 1615.864 12.76 1611.244 10.78 1605.744 6.38 L 1589.904 32.34 C 1600.464 40.48 1611.244 44.44 1624.444 44.44 C 1646.444 44.44 1661.404 33.88 1670.204 12.32 Z M 1860.718 -119.9 C 1845.758 -119.9 1833.658 -113.74 1825.298 -102.96 L 1825.298 -118.58 L 1787.238 -118.58 L 1787.238 42.68 L 1825.298 42.68 L 1825.298 -15.84 C 1833.658 -4.84 1846.198 1.32 1861.598 1.32 C 1894.818 1.32 1916.378 -22.66 1916.378 -58.74 C 1916.378 -95.48 1894.158 -119.9 1860.718 -119.9 Z M 1851.478 -28.82 C 1836.078 -28.82 1825.298 -41.36 1825.298 -59.84 C 1825.298 -77.88 1836.078 -90.64 1851.478 -90.64 C 1867.318 -90.64 1878.098 -77.88 1878.098 -59.84 C 1878.098 -41.58 1867.318 -28.82 1851.478 -28.82 Z M 1976.001 0 L 1976.001 -163.24 L 1937.941 -163.24 L 1937.941 0 Z M 2060.699 -120.34 C 2040.899 -120.34 2024.179 -115.5 2005.699 -106.92 L 2016.479 -81.84 C 2029.019 -88.22 2041.999 -91.74 2051.899 -91.74 C 2067.299 -91.74 2074.999 -84.7 2074.999 -73.04 L 2074.999 -71.28 L 2043.759 -71.28 C 2014.279 -71.06 1998.219 -57.86 1998.219 -35.42 C 1998.219 -13.64 2013.619 1.76 2038.919 1.76 C 2054.979 1.76 2067.519 -3.52 2075.219 -13.64 L 2075.219 0 L 2112.399 0 L 2112.399 -77.44 C 2112.179 -104.28 2093.259 -120.34 2060.699 -120.34 Z M 2050.579 -23.98 C 2040.019 -23.98 2033.859 -29.48 2033.859 -38.06 C 2033.859 -46.86 2039.579 -50.82 2051.019 -50.82 L 2074.999 -50.82 L 2074.999 -40.26 C 2072.579 -30.58 2062.459 -23.98 2050.579 -23.98 Z M 2208.531 -32.78 C 2202.811 -30.36 2197.751 -28.82 2193.791 -28.82 C 2186.751 -28.6 2182.791 -32.56 2182.791 -41.8 L 2182.791 -88.22 L 2213.811 -88.22 L 2213.811 -113.3 L 2182.791 -113.3 L 2182.791 -146.08 L 2144.951 -146.08 L 2144.951 -113.08 L 2128.451 -113.08 L 2128.451 -88.22 L 2144.951 -88.22 L 2144.951 -35.86 C 2144.951 -11.22 2161.451 1.76 2184.331 1.76 C 2195.771 1.76 2207.431 -1.32 2216.011 -6.38 Z M 2293.455 -134.86 C 2297.855 -134.86 2303.135 -133.1 2307.315 -130.02 L 2320.735 -156.64 C 2311.715 -161.92 2299.175 -165 2287.515 -165 C 2261.995 -165 2242.195 -150.48 2242.195 -124.3 L 2242.195 -113.3 L 2226.135 -113.3 L 2226.135 -88.22 L 2242.195 -88.22 L 2242.195 0 L 2279.815 0 L 2279.815 -88.22 L 2306.655 -88.22 L 2306.655 -113.3 L 2279.815 -113.3 L 2279.815 -121.88 C 2279.815 -130.68 2285.755 -135.08 2293.455 -134.86 Z M 2373.967 -119.9 C 2335.027 -119.9 2309.067 -95.92 2309.067 -59.4 C 2309.067 -22.88 2335.027 1.32 2373.967 1.32 C 2412.687 1.32 2438.647 -22.88 2438.647 -59.4 C 2438.647 -95.92 2412.687 -119.9 2373.967 -119.9 Z M 2373.967 -89.76 C 2389.587 -89.76 2400.367 -77.22 2400.367 -58.96 C 2400.367 -40.48 2389.587 -28.16 2373.967 -28.16 C 2358.127 -28.16 2347.347 -40.48 2347.347 -58.96 C 2347.347 -77.22 2358.127 -89.76 2373.967 -89.76 Z M 2496.067 -118.58 L 2458.007 -118.58 L 2458.007 0 L 2496.067 0 L 2496.067 -60.94 C 2498.047 -77.66 2512.567 -88 2534.567 -86.02 L 2534.567 -120.34 C 2517.627 -120.12 2504.207 -112.42 2496.067 -98.56 Z M 2710.344 -120.34 C 2690.764 -120.12 2676.244 -111.1 2668.544 -93.5 C 2662.604 -110.22 2648.304 -120.34 2628.944 -120.34 C 2611.564 -120.12 2597.924 -113.08 2589.784 -99 L 2589.784 -118.58 L 2551.944 -118.58 L 2551.944 0 L 2589.784 0 L 2589.784 -58.74 C 2589.784 -74.8 2598.804 -86.46 2613.324 -86.9 C 2625.864 -86.9 2633.564 -78.32 2633.564 -64.24 L 2633.564 0 L 2671.624 0 L 2671.624 -58.74 C 2671.624 -74.8 2680.424 -86.46 2694.724 -86.9 C 2707.264 -86.9 2715.184 -78.32 2715.184 -64.24 L 2715.184 0 L 2753.024 0 L 2753.024 -74.8 C 2753.024 -102.52 2736.304 -120.34 2710.344 -120.34 Z" transform="matrix(1, 0, 0, 1, 874.020996, 1497)"/>
    <g clip-path="url(#clip1)">
      <g clip-path="url(#clip2)">
        <g clip-path="url(#clip3)">
          <path d="M2617.94 388.237C2617.33 371.455 2613.44 357.154 2606.78 346.888 2582.64 310.129 2526.61 332.825 2449.07 364.186 2383.06 391.141 2300.91 424.711 2220.75 424.711 2136.22 424.711 2070.53 386.736 2020.04 308.674 2019.81 308.343 2019.62 308.112 2019.39 307.827 2016.53 303.892 2012.36 301.636 2008.04 301.636 2002.18 301.636 1996.7 305.479 1993.65 311.856 1935.93 450.913 1900.21 480.071 1880.38 480.071 1857.13 480.071 1843.05 396.833 1842.9 329.699 1859.41 298.663 1881.73 218.018 1881.73 148.49 1881.73 118.954 1878.31 50.2197 1846.81 50.2197 1816.29 50.2197 1810.33 122.301 1810.19 272.465 1802.69 267.404 1794.67 264.871 1786.33 264.871 1758.9 264.871 1736.25 287.236 1722.57 327.837L1722.43 328.168C1668.61 453.724 1634.9 480.071 1616.14 480.071 1603.53 480.071 1593.31 467.556 1585.81 442.896 1603.71 397.935 1613.56 356.301 1613.56 325.641 1612.95 283.445 1595.89 264.223 1580.32 264.223 1562.6 264.223 1551.26 280.442 1546.7 312.187 1489.13 450.959 1453.46 480.078 1433.62 480.078 1397.43 480.078 1394.62 383.402 1394.62 353.774 1394.62 342.661 1394.62 331.178 1395.18 319.688 1395.18 309.045 1388.57 300.981 1379.85 300.981 1373.24 300.981 1367.52 305.155 1364.98 311.671 1364.75 312.094 1364.61 312.464 1364.51 312.749 1307.08 451.052 1271.45 480.078 1251.66 480.078 1228.46 480.078 1212.27 403.283 1212.07 336.143 1225.48 311.106 1243.97 262.622 1250.35 205.238L1292.09 199.1C1300.15 197.459 1305.36 190.428 1305.36 181.094 1305.36 172.376 1299.78 163.042 1289.32 163.042L1289.28 163.042 1252.74 168.248C1252.87 166.277 1252.97 164.312 1252.97 162.387 1252.97 132.852 1249.55 50.2264 1218.04 50.2264 1197.92 50.2264 1187.57 98.4815 1183.35 178.984L1142.92 184.468C1134.85 186.108 1129.65 193.14 1129.65 202.473 1129.65 206.832 1131.01 211.337 1133.91 214.757 1136.82 218.177 1141.28 220.525 1147.37 220.525L1181.94 215.928C1181.47 242.513 1181.47 247.957 1181.47 278.246 1181.47 290.391 1181.56 302.112 1181.8 313.172 1124.46 451.105 1088.87 480.078 1069.14 480.078 1045.65 480.078 1031.12 386.59 1025.68 351.386L1025.64 351.009C1024.04 341.305 1022.82 332.117 1021.75 323.584 1017.15 289.127 1013.87 264.229 995.26 264.229 972.756 264.229 961.174 306.471 952.409 348.476 951.192 338.256 949.737 328.036 948.374 319.079 946.78 307.596 941.204 300.981 933.087 300.981 927.604 300.981 922.49 303.885 919.586 308.482 919.401 308.714 919.302 308.906 919.209 309.091 918.508 309.984 918.038 310.917 917.569 311.856 859.901 450.913 824.128 480.071 804.297 480.071 767.822 480.071 760.745 368.955 757.364 315.56L757.179 312.557C756.709 304.963 756.286 298.448 755.816 293.242 755.023 283.769 748.315 276.877 739.921 276.877 736.124 276.877 732.42 278.471 729.562 281.375 726.42 284.563 724.595 288.876 724.641 293.189 711.418 441.01 685.256 480.064 673.303 480.064 663.361 480.064 653.379 449.921 653.379 382.502 653.379 358.358 654.411 338.851 656.707 319.02 656.707 308.562 650.284 300.968 641.373 300.968 637.061 300.968 633.072 302.747 630.075 305.936L629.844 306.121C629.281 306.637 628.812 307.292 628.342 307.854 577.706 385.869 511.835 423.799 426.98 423.799 346.531 423.799 264.11 390.228 197.816 363.273 120.059 331.879 63.8463 309.19 39.6096 345.995 32.9551 356.261 29.0589 370.516 28.4504 387.205 27.65 396.254 30.9838 403.802 37.0298 406.051 39.2325 406.382 41.2963 405.819 43.0294 404.411 46.2178 401.831 48.3279 396.625 48.6057 390.486 49.2143 381.907 50.7159 376.139 53.4346 372.296 60.4661 361.652 75.6604 358.934 99.7582 363.855 123.763 368.968 153.014 380.359 192.445 397.095L194.416 397.888C259.301 423.865 340.081 456.211 418.89 458.182L426.676 458.182C467.701 458.182 503.706 449.98 536.76 433.053 568.075 417.303 596.77 393.483 622.038 362.215 621.754 370.562 621.615 378.342 621.615 385.843 621.615 445.336 630.664 516.227 673.892 516.227 701.555 516.227 722.134 486.878 736.759 426.491 749.513 486.031 772.201 516.227 804.316 516.227 853.498 516.227 895.832 438.821 923.866 378.533 929.072 432.497 931.228 483.643 931.744 498.367L931.791 499.161C932.538 509.196 939.199 516.181 948.156 516.181 948.202 516.181 948.202 516.181 948.202 516.181 956.828 515.196 962.827 508.495 963.535 499.022 964.99 461.748 973.239 386.928 990.167 329.491 990.398 331.178 990.636 332.865 990.914 334.651 1001.84 411.257 1016.79 516.227 1069.16 516.227 1105.68 516.227 1143.84 473.284 1185.67 384.956 1194.06 473.284 1215.72 516.227 1251.68 516.227 1287.17 516.227 1323.97 476.049 1364.15 393.397 1369.73 473.8 1393.73 516.227 1433.63 516.227 1469.07 516.227 1505.83 476.142 1545.96 393.675 1550.51 450.589 1566.54 516.227 1616.15 516.227 1646.76 516.227 1677.99 486.878 1711.51 426.491 1714.13 456.542 1725.62 516.882 1775.13 516.882 1800.77 516.882 1820.04 490.159 1829.42 466.014 1840.95 499.346 1858.06 516.227 1880.38 516.227 1939.31 516.227 1989.47 403.147 2014.13 346.888 2042.03 386.127 2074.75 415.385 2111.37 433.952 2144.33 450.88 2180.2 459.082 2221.08 459.082L2228.87 459.082C2307.44 457.111 2387.94 424.764 2452.78 398.695L2454.6 397.994C2493.75 381.259 2522.87 369.861 2546.82 364.801 2570.87 359.833 2586.01 362.552 2593.04 373.195 2595.72 377.085 2597.22 382.853 2597.83 391.293 2598.11 397.531 2600.21 402.777 2603.4 405.356 2605.33 406.812 2607.44 407.281 2610.06 406.719 2615.5 404.642 2618.74 397.048 2617.94 388.237ZM1219.7 109.721C1220.73 120.41 1224.01 156.611 1224.01 170.773 1224.01 173.353 1216.42 173.646 1216.42 173.646 1217.36 159.153 1218.48 122.236 1219.7 109.721ZM1214.78 210.583 1220.8 209.783C1219.72 218.177 1213.89 257.92 1212.2 266.638 1212.35 258.906 1214.4 219.4 1214.78 210.583ZM1582.01 361.652C1580.79 366.435 1576.34 384.253 1574.84 388.989 1574.46 384.583 1574.23 366.858 1574.09 361.745L1574.09 361.183C1573.81 348.151 1573.53 335.821 1576.95 320.865 1578.03 316.321 1579.34 311.909 1580.79 307.689 1582.2 312.001 1585.32 313.637 1585.88 318.049 1586.3 321.144 1587.19 325.94 1587.19 328.804 1587.19 338.455 1585.29 348.476 1582.01 361.652ZM1775.12 480.779C1750.93 480.779 1742.31 444.867 1742.31 411.25 1742.31 384.196 1747.46 354.852 1756.04 332.812 1756.23 332.342 1756.47 331.872 1756.56 331.449 1764.53 311.803 1774.33 300.975 1784.08 300.975 1803.72 300.975 1814.13 328.916 1814.13 381.847 1814.13 409.094 1802.13 480.779 1775.12 480.779ZM1840.37 249.45C1840.97 219.63 1845.03 141.487 1848.45 106.23 1849.43 116.92 1851.4 137.121 1851.4 151.284 1851.4 171.816 1845.06 226.192 1840.37 249.45Z" fill="#0C90B2" transform="matrix(1.19009 0 0 1 682.281 624.949)"/>
          <path d="M1534.9 248.59C1534.9 265.678 1528.41 275.918 1517.55 275.918 1506.38 275.918 1501.38 266.601 1501.38 257.385 1501.38 253.783 1501.9 251.67 1502.31 250.181 1502.52 249.36 1502.62 248.946 1502.62 248.583 1502.62 248.169 1502.42 247.712 1502.06 246.833 1501.29 245.032 1500.16 242.301 1500.16 237.566 1500.16 228.816 1506.79 219.033 1516.32 219.033 1529.18 219.048 1534.9 233.87 1534.9 248.59Z" fill="#0C90B2" transform="matrix(1.08401 0 0 1 683.733 593.249)"/>
        </g>
      </g>
    </g>
  </g>
</svg>