<?xml version="1.0" encoding="utf-8"?>
<svg viewBox="381.097 311.799 3931.594 772.801" xmlns="http://www.w3.org/2000/svg">
  <defs>
    <clipPath id="clip0">
      <rect x="-46" y="421" width="4646" height="1330"/>
    </clipPath>
  </defs>
  <g clip-path="url(#clip0)" transform="matrix(1, 0, 0, 1, 46.000001, -421.000013)">
    <path d="M 764.664 -56.337 Q 706.428 -56.97 647.559 -62.667 Q 588.69 -68.364 532.037 -76.593 Q 475.383 -84.822 421.895 -94.634 Q 368.406 -104.445 320.298 -113.94 Q 266.493 -124.701 220.284 -133.247 Q 174.075 -141.792 136.095 -145.59 Q 60.135 -153.186 36.714 -136.095 Q 27.852 -129.765 25.953 -117.105 Q 25.32 -112.041 21.206 -108.56 Q 17.091 -105.078 12.027 -105.711 Q 6.963 -106.977 3.482 -110.775 Q 0 -114.573 1.266 -119.637 Q 3.165 -143.058 22.155 -156.984 Q 38.613 -169.011 67.098 -171.86 Q 95.583 -174.708 133.88 -171.227 Q 172.176 -167.745 220.601 -158.883 Q 269.025 -150.021 325.362 -139.26 Q 376.635 -129.132 431.706 -119.004 Q 486.777 -108.876 544.697 -100.647 Q 602.616 -92.418 662.118 -87.038 Q 721.62 -81.657 780.489 -81.657 Q 835.56 -81.657 889.365 -87.354 Q 943.17 -93.051 994.443 -106.028 Q 1045.716 -119.004 1093.508 -140.21 Q 1141.299 -161.415 1184.343 -193.065 Q 1188.774 -196.23 1193.838 -195.281 Q 1198.902 -194.331 1202.067 -189.9 Q 1205.232 -185.469 1204.599 -180.405 Q 1203.966 -175.341 1199.535 -172.176 Q 1111.548 -108.243 993.81 -79.758 Q 898.227 -56.337 779.856 -56.337 Z M 1379.3 0 Q 1360.31 0 1347.017 -10.445 Q 1333.724 -20.889 1325.179 -36.398 Q 1316.633 -51.906 1311.253 -69.947 Q 1305.872 -87.987 1303.34 -103.179 Q 1300.175 -89.886 1294.795 -72.162 Q 1289.414 -54.438 1280.869 -38.297 Q 1272.323 -22.155 1260.296 -11.078 Q 1248.269 0 1231.811 0 Q 1215.353 0 1204.909 -10.761 Q 1194.464 -21.522 1188.451 -38.613 Q 1182.437 -55.704 1180.222 -76.91 Q 1178.006 -98.115 1178.006 -119.004 Q 1178.006 -137.361 1179.272 -154.136 Q 1180.538 -170.91 1181.804 -182.937 Q 1182.437 -188.001 1185.919 -191.483 Q 1189.4 -194.964 1195.097 -194.964 Q 1207.124 -194.964 1207.124 -182.304 Q 1205.225 -169.011 1204.276 -154.769 Q 1203.326 -140.526 1203.326 -122.169 Q 1203.326 -105.711 1204.592 -88.304 Q 1205.858 -70.896 1209.023 -56.97 Q 1212.188 -43.044 1217.569 -34.182 Q 1222.949 -25.32 1231.178 -25.32 Q 1248.902 -25.32 1266.626 -68.997 Q 1284.35 -112.674 1294.478 -206.358 Q 1294.478 -211.422 1297.96 -214.587 Q 1301.441 -217.752 1306.505 -217.752 Q 1311.569 -217.752 1315.051 -214.587 Q 1318.532 -211.422 1319.165 -206.358 Q 1320.431 -195.597 1321.697 -178.19 Q 1322.963 -160.782 1325.179 -140.526 Q 1327.394 -120.27 1331.192 -99.698 Q 1334.99 -79.125 1341.32 -62.667 Q 1347.65 -46.209 1356.829 -35.765 Q 1366.007 -25.32 1379.3 -25.32 Q 1396.391 -25.32 1414.748 -41.462 Q 1433.105 -57.603 1450.829 -81.974 Q 1468.553 -106.344 1484.378 -134.513 Q 1500.203 -162.681 1512.23 -187.368 Q 1516.028 -194.331 1523.624 -194.331 Q 1528.688 -194.331 1532.17 -190.217 Q 1535.651 -186.102 1535.651 -181.038 Q 1535.651 -179.772 1535.018 -176.924 Q 1534.385 -174.075 1529.954 -165.846 Q 1519.193 -145.59 1503.368 -117.105 Q 1487.543 -88.62 1468.237 -62.667 Q 1448.93 -36.714 1426.142 -18.357 Q 1403.354 0 1379.3 0 Z M 1511.596 -182.937 Q 1511.596 -188.001 1515.394 -191.483 Q 1519.192 -194.964 1524.889 -194.964 Q 1529.953 -194.964 1532.801 -191.166 Q 1535.65 -187.368 1536.916 -181.671 Q 1539.448 -169.011 1541.663 -153.819 Q 1543.879 -138.627 1545.145 -125.334 Q 1547.677 -136.728 1551.791 -154.452 Q 1555.906 -172.176 1561.919 -188.951 Q 1567.933 -205.725 1576.162 -217.752 Q 1584.391 -229.779 1595.152 -229.779 Q 1602.748 -229.779 1607.179 -223.449 Q 1611.61 -217.119 1614.458 -206.358 Q 1617.307 -195.597 1619.206 -181.355 Q 1621.105 -167.112 1624.27 -151.287 Q 1628.068 -129.132 1633.132 -106.977 Q 1638.196 -84.822 1644.842 -66.465 Q 1651.489 -48.108 1659.718 -36.714 Q 1667.947 -25.32 1678.708 -25.32 Q 1695.799 -25.32 1714.156 -41.462 Q 1732.513 -57.603 1750.237 -81.974 Q 1767.961 -106.344 1783.786 -134.513 Q 1799.611 -162.681 1811.638 -187.368 Q 1815.436 -194.331 1823.032 -194.331 Q 1828.096 -194.331 1831.577 -190.217 Q 1835.059 -186.102 1835.059 -181.038 Q 1835.059 -179.772 1834.426 -176.924 Q 1833.793 -174.075 1829.362 -165.846 Q 1818.601 -145.59 1802.776 -117.105 Q 1786.951 -88.62 1767.644 -62.667 Q 1748.338 -36.714 1725.55 -18.357 Q 1702.762 0 1678.708 0 Q 1663.516 0 1651.805 -9.812 Q 1640.095 -19.623 1631.549 -35.448 Q 1623.004 -51.273 1616.674 -71.529 Q 1610.344 -91.785 1605.596 -112.991 Q 1600.849 -134.196 1597.684 -154.769 Q 1594.519 -175.341 1591.354 -191.799 Q 1582.492 -171.543 1575.845 -146.54 Q 1569.199 -121.536 1564.451 -96.849 Q 1559.704 -72.162 1557.172 -49.691 Q 1554.64 -27.219 1554.007 -12.027 Q 1552.741 -1.266 1541.347 0 Q 1529.953 0 1528.687 -12.027 Q 1528.687 -12.027 1527.737 -28.485 Q 1526.788 -44.943 1524.889 -69.947 Q 1522.99 -94.95 1519.825 -125.018 Q 1516.66 -155.085 1511.596 -182.937 Z M 1769.226 -301.941 Q 1761.63 -301.941 1758.148 -305.739 Q 1754.667 -309.537 1754.667 -314.601 Q 1754.667 -319.032 1757.199 -322.514 Q 1759.731 -325.995 1765.428 -327.261 L 1812.903 -332.958 Q 1816.068 -381.699 1823.347 -411.45 Q 1830.627 -441.201 1847.085 -441.201 Q 1858.479 -441.201 1865.442 -430.757 Q 1872.405 -420.312 1875.886 -405.753 Q 1879.368 -391.194 1880.317 -376.319 Q 1881.267 -361.443 1881.267 -352.581 Q 1881.267 -349.416 1880.95 -346.884 Q 1880.634 -344.352 1880.634 -341.82 L 1925.577 -347.517 Q 1931.907 -347.517 1935.072 -343.719 Q 1938.237 -339.921 1938.237 -334.857 Q 1938.237 -330.426 1935.705 -326.945 Q 1933.173 -323.463 1927.476 -322.197 L 1878.735 -315.867 Q 1876.203 -294.978 1871.455 -274.406 Q 1866.708 -253.833 1860.694 -236.426 Q 1854.681 -219.018 1848.667 -205.092 Q 1842.654 -191.166 1836.957 -182.937 Q 1836.957 -164.58 1839.489 -137.678 Q 1842.021 -110.775 1847.718 -85.772 Q 1853.415 -60.768 1862.593 -43.044 Q 1871.772 -25.32 1885.065 -25.32 Q 1902.156 -25.32 1920.513 -41.462 Q 1938.87 -57.603 1956.594 -81.974 Q 1974.318 -106.344 1990.143 -134.513 Q 2005.968 -162.681 2017.995 -187.368 Q 2021.793 -194.331 2029.389 -194.331 Q 2034.453 -194.331 2037.934 -190.217 Q 2041.416 -186.102 2041.416 -181.038 Q 2041.416 -179.772 2040.783 -176.924 Q 2040.15 -174.075 2035.719 -165.846 Q 2024.958 -145.59 2009.133 -117.105 Q 1993.308 -88.62 1974.001 -62.667 Q 1954.695 -36.714 1931.907 -18.357 Q 1909.119 0 1885.065 0 Q 1866.708 0 1854.048 -12.344 Q 1841.388 -24.687 1833.159 -44.31 Q 1824.93 -63.933 1820.499 -88.304 Q 1816.068 -112.674 1813.852 -137.361 Q 1811.637 -162.048 1811.32 -184.203 Q 1811.004 -206.358 1811.004 -220.917 Q 1811.004 -243.705 1811.004 -265.227 Q 1811.004 -286.749 1811.637 -307.005 Z M 1847.718 -409.551 Q 1844.553 -392.46 1842.654 -374.103 Q 1840.755 -355.746 1839.489 -336.756 L 1855.947 -338.655 L 1855.947 -344.985 Q 1855.947 -373.47 1853.415 -388.029 Q 1850.883 -402.588 1847.718 -409.551 Z M 1836.957 -244.338 Q 1848.351 -278.52 1853.415 -312.702 L 1838.223 -310.803 Q 1836.957 -292.446 1836.957 -275.672 Q 1836.957 -258.897 1836.957 -244.338 Z M 2090.787 -25.32 Q 2107.878 -25.32 2126.235 -41.462 Q 2144.592 -57.603 2162.316 -81.974 Q 2180.04 -106.344 2195.865 -134.513 Q 2211.69 -162.681 2223.717 -187.368 Q 2227.515 -194.331 2235.111 -194.331 Q 2240.175 -194.331 2243.657 -190.217 Q 2247.138 -186.102 2247.138 -181.038 Q 2247.138 -179.772 2246.505 -176.924 Q 2245.872 -174.075 2241.441 -165.846 Q 2230.68 -145.59 2214.855 -117.105 Q 2199.03 -88.62 2179.724 -62.667 Q 2160.417 -36.714 2137.629 -18.357 Q 2114.841 0 2090.787 0 Q 2065.467 0 2050.592 -16.142 Q 2035.716 -32.283 2028.12 -55.388 Q 2020.524 -78.492 2018.309 -104.129 Q 2016.093 -129.765 2016.093 -149.388 Q 2016.093 -158.25 2016.093 -166.163 Q 2016.093 -174.075 2016.726 -182.937 Q 2017.359 -188.001 2020.841 -191.483 Q 2024.322 -194.964 2030.019 -194.964 Q 2035.083 -194.964 2038.565 -191.166 Q 2042.046 -187.368 2042.046 -181.671 Q 2041.413 -173.442 2041.413 -165.53 Q 2041.413 -157.617 2041.413 -149.388 Q 2041.413 -139.26 2042.679 -118.688 Q 2043.945 -98.115 2048.693 -77.226 Q 2053.44 -56.337 2063.252 -40.829 Q 2073.063 -25.32 2090.787 -25.32 Z M 2014.827 -295.611 Q 2014.827 -298.776 2015.46 -300.359 Q 2016.093 -301.941 2016.093 -303.207 Q 2016.093 -305.106 2014.827 -306.689 Q 2013.561 -308.271 2013.561 -312.702 Q 2013.561 -317.133 2017.043 -321.248 Q 2020.524 -325.362 2026.221 -325.362 Q 2034.45 -325.362 2037.932 -318.083 Q 2041.413 -310.803 2041.413 -303.207 Q 2041.413 -296.877 2038.881 -289.914 Q 2036.349 -282.951 2027.487 -282.951 Q 2020.524 -282.951 2017.676 -286.749 Q 2014.827 -290.547 2014.827 -295.611 Z M 2246.5 -141.159 Q 2246.5 -133.563 2246.5 -125.651 Q 2246.5 -117.738 2247.766 -109.509 Q 2262.958 -151.287 2262.958 -176.607 Q 2262.325 -189.267 2259.793 -195.914 Q 2257.261 -202.56 2255.995 -203.826 Q 2249.032 -194.331 2247.766 -177.557 Q 2246.5 -160.782 2246.5 -141.159 Z M 2297.14 0 Q 2274.985 0 2260.426 -13.293 Q 2245.867 -26.586 2237.005 -48.425 Q 2228.143 -70.263 2224.662 -97.482 Q 2221.18 -124.701 2221.18 -153.186 Q 2221.18 -169.011 2223.079 -182.937 Q 2224.978 -196.863 2229.093 -207.308 Q 2233.207 -217.752 2240.17 -223.766 Q 2247.133 -229.779 2256.628 -229.779 Q 2267.389 -229.779 2277.834 -217.119 Q 2288.278 -204.459 2288.911 -175.974 Q 2288.911 -155.718 2281.315 -127.866 Q 2273.719 -100.014 2257.261 -65.199 Q 2263.591 -47.475 2273.086 -36.398 Q 2282.581 -25.32 2297.14 -25.32 Q 2314.231 -25.32 2332.588 -41.462 Q 2350.945 -57.603 2368.669 -81.974 Q 2386.393 -106.344 2402.218 -134.513 Q 2418.043 -162.681 2430.07 -187.368 Q 2433.868 -194.331 2441.464 -194.331 Q 2446.528 -194.331 2450.01 -190.217 Q 2453.491 -186.102 2453.491 -181.038 Q 2453.491 -179.772 2452.858 -176.924 Q 2452.225 -174.075 2447.794 -165.846 Q 2437.033 -145.59 2421.208 -117.105 Q 2405.383 -88.62 2386.077 -62.667 Q 2366.77 -36.714 2343.982 -18.357 Q 2321.194 0 2297.14 0 Z M 2595.914 -25.32 Q 2613.005 -25.32 2631.362 -41.462 Q 2649.719 -57.603 2667.443 -81.974 Q 2685.167 -106.344 2700.992 -134.513 Q 2716.817 -162.681 2728.844 -187.368 Q 2732.642 -194.331 2740.238 -194.331 Q 2745.302 -194.331 2748.784 -190.217 Q 2752.265 -186.102 2752.265 -181.038 Q 2752.265 -179.772 2751.632 -176.924 Q 2750.999 -174.075 2746.568 -165.846 Q 2735.807 -145.59 2719.982 -117.105 Q 2704.157 -88.62 2684.851 -62.667 Q 2665.544 -36.714 2642.756 -18.357 Q 2619.968 0 2595.914 0 Q 2573.759 0 2560.15 -16.142 Q 2546.54 -32.283 2538.311 -58.236 Q 2535.779 -49.374 2530.399 -39.246 Q 2525.018 -29.118 2517.106 -20.256 Q 2509.193 -11.394 2499.065 -5.381 Q 2488.937 0.633 2476.91 0.633 Q 2459.186 0.633 2446.21 -7.913 Q 2433.233 -16.458 2425.004 -30.384 Q 2416.775 -44.31 2412.977 -62.667 Q 2409.179 -81.024 2409.179 -100.647 Q 2409.179 -124.068 2414.56 -146.856 Q 2419.94 -169.644 2430.068 -188.001 Q 2440.196 -206.358 2455.072 -217.752 Q 2469.947 -229.146 2489.57 -229.146 Q 2506.661 -229.146 2521.853 -217.119 L 2521.853 -220.917 Q 2521.853 -266.493 2522.803 -306.689 Q 2523.752 -346.884 2527.55 -376.635 Q 2531.348 -406.386 2538.628 -423.794 Q 2545.907 -441.201 2557.934 -441.201 Q 2569.328 -441.201 2576.291 -430.757 Q 2583.254 -420.312 2586.736 -405.753 Q 2590.217 -391.194 2591.167 -376.319 Q 2592.116 -361.443 2592.116 -352.581 Q 2592.116 -327.261 2587.685 -301.625 Q 2583.254 -275.988 2576.608 -252.884 Q 2569.961 -229.779 2562.049 -211.422 Q 2554.136 -193.065 2547.806 -182.937 Q 2547.806 -164.58 2550.338 -137.678 Q 2552.87 -110.775 2558.567 -85.772 Q 2564.264 -60.768 2573.443 -43.044 Q 2582.621 -25.32 2595.914 -25.32 Z M 2476.91 -24.687 Q 2490.203 -24.687 2499.698 -36.081 Q 2509.193 -47.475 2514.89 -62.984 Q 2520.587 -78.492 2523.436 -95.267 Q 2526.284 -112.041 2526.284 -122.802 Q 2526.284 -131.031 2525.335 -144.957 Q 2524.385 -158.883 2520.587 -171.86 Q 2516.789 -184.836 2508.877 -194.331 Q 2500.964 -203.826 2487.038 -203.826 Q 2475.644 -203.826 2466.149 -194.015 Q 2456.654 -184.203 2449.375 -168.378 Q 2442.095 -152.553 2438.297 -133.247 Q 2434.499 -113.94 2434.499 -94.95 Q 2434.499 -66.465 2444.627 -45.576 Q 2454.755 -24.687 2476.91 -24.687 Z M 2558.567 -409.551 Q 2555.402 -389.928 2553.187 -368.09 Q 2550.971 -346.251 2549.705 -324.413 Q 2548.439 -302.574 2548.123 -282.002 Q 2547.806 -261.429 2547.806 -244.338 Q 2556.668 -269.025 2561.732 -294.662 Q 2566.796 -320.298 2566.796 -344.985 Q 2566.796 -373.47 2564.264 -388.029 Q 2561.732 -402.588 2558.567 -409.551 Z M 3153.594 -56.97 Q 3035.223 -56.97 2939.64 -80.391 Q 2821.902 -108.876 2733.915 -172.809 Q 2729.484 -175.974 2728.851 -181.038 Q 2728.218 -186.102 2731.383 -190.533 Q 2734.548 -194.964 2739.612 -195.914 Q 2744.676 -196.863 2749.107 -193.698 Q 2791.518 -162.048 2839.31 -140.843 Q 2887.101 -119.637 2938.374 -106.661 Q 2989.647 -93.684 3043.769 -87.987 Q 3097.89 -82.29 3152.961 -82.29 Q 3211.83 -82.29 3271.332 -87.671 Q 3330.834 -93.051 3388.754 -101.28 Q 3446.673 -109.509 3501.744 -119.637 Q 3556.815 -129.765 3608.088 -139.893 Q 3664.425 -150.654 3712.85 -159.516 Q 3761.274 -168.378 3799.571 -171.86 Q 3837.867 -175.341 3866.352 -172.493 Q 3894.837 -169.644 3911.295 -157.617 Q 3930.285 -143.691 3932.184 -120.27 Q 3933.45 -115.206 3929.969 -111.408 Q 3926.487 -107.61 3921.423 -106.344 Q 3916.359 -105.711 3912.245 -109.193 Q 3908.13 -112.674 3907.497 -117.738 Q 3905.598 -130.398 3896.736 -136.728 Q 3873.315 -153.819 3797.355 -146.223 Q 3759.375 -142.425 3713.166 -133.88 Q 3666.957 -125.334 3613.152 -114.573 Q 3565.044 -105.078 3511.556 -95.267 Q 3458.067 -85.455 3401.414 -77.226 Q 3344.76 -68.997 3285.891 -63.3 Q 3227.022 -57.603 3168.786 -56.97 Z" transform="matrix(1, 0, 0, 1, 334.169006, 1174)" style="fill: rgb(12, 144, 178); white-space: pre;"/>
    <path d="M 3.66 -19.398 C 18.117 -7.137 39.162 0.915 60.207 0.915 C 88.572 0.915 110.349 -12.627 110.349 -37.698 C 110.532 -83.814 42.273 -70.638 42.273 -94.245 C 42.273 -101.199 48.861 -104.676 58.56 -104.676 C 68.808 -104.676 84.912 -99.552 98.454 -91.5 L 109.617 -115.473 C 96.807 -123.891 78.873 -129.381 60.939 -129.381 C 31.293 -129.381 11.346 -114.741 11.346 -91.5 C 11.346 -46.116 79.605 -60.207 79.605 -36.051 C 79.605 -28.182 72.468 -23.79 60.573 -23.79 C 47.031 -23.79 28.365 -31.293 15.189 -43.005 Z M 120.772 -74.664 L 134.497 -74.664 L 134.497 -29.097 C 134.497 -8.784 147.856 1.281 165.424 1.281 C 174.574 1.281 183.724 -1.281 191.044 -5.49 L 185.188 -26.169 C 180.064 -23.79 175.672 -22.509 172.012 -22.509 C 165.973 -22.326 162.496 -25.62 162.496 -33.855 L 162.496 -74.481 L 189.214 -74.481 L 189.214 -94.062 L 162.496 -94.062 L 162.496 -121.146 L 134.497 -121.146 L 134.497 -94.062 L 120.772 -94.062 Z M 208.064 0 L 236.246 0 L 236.246 -47.397 C 236.246 -64.05 248.69 -74.847 268.82 -73.017 L 268.82 -99.552 C 254.18 -99.369 243.017 -92.781 236.246 -80.703 L 236.246 -98.454 L 208.064 -98.454 Z M 275.772 -48.861 C 275.772 -19.032 295.719 1.098 327.195 1.098 C 344.946 1.098 359.403 -5.307 369.285 -16.287 L 354.462 -31.293 C 347.691 -24.522 338.907 -20.862 329.574 -20.862 C 316.947 -20.862 307.431 -28.182 304.137 -40.626 L 374.775 -40.626 C 377.154 -76.494 361.05 -99.369 326.463 -99.369 C 296.451 -99.369 275.772 -79.239 275.772 -48.861 Z M 303.588 -57.279 C 305.784 -70.272 314.202 -78.69 326.646 -78.69 C 339.639 -78.69 348.057 -70.272 348.423 -57.279 Z M 385.744 -29.463 C 385.744 -11.529 398.554 1.281 419.599 1.281 C 433.324 1.281 443.938 -3.294 450.526 -11.529 L 450.526 0 L 478.159 0 L 477.976 -64.233 C 477.793 -86.376 462.604 -99.552 436.252 -99.552 C 419.05 -99.552 406.423 -95.526 391.783 -88.206 L 400.567 -68.808 C 410.815 -74.481 421.063 -77.409 429.847 -77.409 C 443.389 -77.409 450.343 -71.37 450.343 -60.939 L 450.343 -59.109 L 423.259 -59.109 C 399.103 -58.926 385.744 -47.946 385.744 -29.463 Z M 412.096 -31.293 C 412.096 -39.162 417.403 -42.456 428.2 -42.456 L 450.343 -42.456 L 450.343 -33.672 C 448.696 -25.254 439.363 -18.849 427.468 -18.849 C 417.952 -18.849 412.096 -23.79 412.096 -31.293 Z M 502.493 0 L 530.675 0 L 530.675 -48.678 C 530.675 -62.952 538.91 -73.566 552.635 -73.749 C 564.164 -73.749 571.484 -66.246 571.484 -53.619 L 571.484 0 L 599.483 0 L 599.483 -48.678 C 599.483 -62.952 607.718 -73.566 621.26 -73.749 C 632.972 -73.749 640.292 -66.246 640.292 -53.619 L 640.292 0 L 668.291 0 L 668.291 -61.854 C 668.291 -84.912 654.566 -99.552 632.789 -99.552 C 616.136 -99.369 603.692 -92.049 597.287 -76.86 C 592.529 -91.134 580.634 -99.552 563.981 -99.552 C 549.158 -99.369 537.629 -93.513 530.675 -81.435 L 530.675 -98.454 L 502.493 -98.454 Z M 693.545 0 L 721.727 0 L 721.727 -135.786 L 693.545 -135.786 Z M 748.813 -126.453 C 748.813 -117.303 755.035 -110.715 764.002 -110.715 C 772.969 -110.715 779.191 -117.303 779.191 -126.453 C 779.191 -135.603 772.969 -142.191 764.002 -142.191 C 755.035 -142.191 748.813 -135.603 748.813 -126.453 Z M 749.911 0 L 778.093 0 L 778.093 -98.454 L 749.911 -98.454 Z M 805.172 0 L 833.354 0 L 833.354 -48.495 C 833.354 -62.952 841.772 -73.566 855.863 -73.749 C 867.941 -73.749 875.261 -66.063 875.261 -53.619 L 875.261 0 L 903.443 0 L 903.443 -61.854 C 903.443 -84.912 889.352 -99.552 867.392 -99.552 C 852.02 -99.369 840.308 -93.513 833.354 -81.252 L 833.354 -98.454 L 805.172 -98.454 Z M 919.359 -48.861 C 919.359 -19.032 939.306 1.098 970.782 1.098 C 988.533 1.098 1002.99 -5.307 1012.872 -16.287 L 998.049 -31.293 C 991.278 -24.522 982.494 -20.862 973.161 -20.862 C 960.534 -20.862 951.018 -28.182 947.724 -40.626 L 1018.362 -40.626 C 1020.741 -76.494 1004.637 -99.369 970.05 -99.369 C 940.038 -99.369 919.359 -79.239 919.359 -48.861 Z M 947.175 -57.279 C 949.371 -70.272 957.789 -78.69 970.233 -78.69 C 983.226 -78.69 991.644 -70.272 992.01 -57.279 Z M 1028.61 -49.593 C 1028.61 -19.215 1047.093 1.098 1075.092 1.098 C 1088.634 1.098 1099.248 -4.392 1106.202 -14.457 L 1106.202 0 L 1134.201 0 L 1134.201 -135.786 L 1106.202 -135.786 L 1106.202 -83.997 C 1099.065 -94.062 1088.268 -99.552 1074.36 -99.552 C 1046.91 -99.552 1028.61 -79.605 1028.61 -49.593 Z M 1056.792 -48.861 C 1056.975 -64.782 1067.04 -76.128 1081.68 -76.128 C 1096.137 -76.128 1106.202 -64.965 1106.202 -48.861 C 1106.202 -32.757 1096.137 -21.594 1081.68 -21.594 C 1066.857 -21.594 1056.975 -32.757 1056.792 -48.861 Z M 1197.144 -74.664 L 1210.869 -74.664 L 1210.869 -29.097 C 1210.869 -8.784 1224.228 1.281 1241.796 1.281 C 1250.946 1.281 1260.096 -1.281 1267.416 -5.49 L 1261.56 -26.169 C 1256.436 -23.79 1252.044 -22.509 1248.384 -22.509 C 1242.345 -22.326 1238.868 -25.62 1238.868 -33.855 L 1238.868 -74.481 L 1265.586 -74.481 L 1265.586 -94.062 L 1238.868 -94.062 L 1238.868 -121.146 L 1210.869 -121.146 L 1210.869 -94.062 L 1197.144 -94.062 Z M 1276.75 -29.463 C 1276.75 -11.529 1289.56 1.281 1310.605 1.281 C 1324.33 1.281 1334.944 -3.294 1341.532 -11.529 L 1341.532 0 L 1369.165 0 L 1368.982 -64.233 C 1368.799 -86.376 1353.61 -99.552 1327.258 -99.552 C 1310.056 -99.552 1297.429 -95.526 1282.789 -88.206 L 1291.573 -68.808 C 1301.821 -74.481 1312.069 -77.409 1320.853 -77.409 C 1334.395 -77.409 1341.349 -71.37 1341.349 -60.939 L 1341.349 -59.109 L 1314.265 -59.109 C 1290.109 -58.926 1276.75 -47.946 1276.75 -29.463 Z M 1303.102 -31.293 C 1303.102 -39.162 1308.409 -42.456 1319.206 -42.456 L 1341.349 -42.456 L 1341.349 -33.672 C 1339.702 -25.254 1330.369 -18.849 1318.474 -18.849 C 1308.958 -18.849 1303.102 -23.79 1303.102 -31.293 Z M 1381.238 0 L 1412.348 0 L 1433.942 -32.208 L 1453.706 0 L 1486.097 0 L 1452.608 -50.508 L 1483.901 -98.454 L 1453.157 -98.454 L 1433.942 -68.625 L 1415.825 -98.454 L 1383.617 -98.454 L 1415.276 -50.325 Z M 1537.699 -29.463 C 1537.699 -11.529 1550.509 1.281 1571.554 1.281 C 1585.279 1.281 1595.893 -3.294 1602.481 -11.529 L 1602.481 0 L 1630.114 0 L 1629.931 -64.233 C 1629.748 -86.376 1614.559 -99.552 1588.207 -99.552 C 1571.005 -99.552 1558.378 -95.526 1543.738 -88.206 L 1552.522 -68.808 C 1562.77 -74.481 1573.018 -77.409 1581.802 -77.409 C 1595.344 -77.409 1602.298 -71.37 1602.298 -60.939 L 1602.298 -59.109 L 1575.214 -59.109 C 1551.058 -58.926 1537.699 -47.946 1537.699 -29.463 Z M 1564.051 -31.293 C 1564.051 -39.162 1569.358 -42.456 1580.155 -42.456 L 1602.298 -42.456 L 1602.298 -33.672 C 1600.651 -25.254 1591.318 -18.849 1579.423 -18.849 C 1569.907 -18.849 1564.051 -23.79 1564.051 -31.293 Z M 1646.031 -52.704 C 1646.031 -24.156 1663.599 -5.124 1689.036 -5.124 C 1702.029 -5.124 1712.094 -10.248 1718.682 -19.398 L 1718.682 -8.235 C 1718.682 5.124 1708.434 13.725 1692.33 13.725 C 1681.167 13.725 1670.736 10.248 1661.769 3.843 L 1651.338 23.607 C 1662.684 31.293 1677.507 36.6 1694.16 36.6 C 1725.636 36.6 1746.681 18.849 1746.681 -9.15 L 1746.681 -98.454 L 1718.682 -98.454 L 1718.682 -85.095 C 1711.911 -94.245 1701.663 -99.552 1688.304 -99.369 C 1663.233 -99.369 1646.031 -80.52 1646.031 -52.704 Z M 1672.383 -51.972 C 1672.566 -66.978 1681.899 -77.592 1695.624 -77.592 C 1709.349 -77.592 1718.682 -67.161 1718.682 -51.972 C 1718.682 -36.966 1709.349 -26.535 1695.624 -26.535 C 1681.716 -26.535 1672.566 -36.966 1672.383 -51.972 Z M 1764.063 -48.861 C 1764.063 -19.032 1784.01 1.098 1815.486 1.098 C 1833.237 1.098 1847.694 -5.307 1857.576 -16.287 L 1842.753 -31.293 C 1835.982 -24.522 1827.198 -20.862 1817.865 -20.862 C 1805.238 -20.862 1795.722 -28.182 1792.428 -40.626 L 1863.066 -40.626 C 1865.445 -76.494 1849.341 -99.369 1814.754 -99.369 C 1784.742 -99.369 1764.063 -79.239 1764.063 -48.861 Z M 1791.879 -57.279 C 1794.075 -70.272 1802.493 -78.69 1814.937 -78.69 C 1827.93 -78.69 1836.348 -70.272 1836.714 -57.279 Z M 1881.731 0 L 1909.913 0 L 1909.913 -48.495 C 1909.913 -62.952 1918.331 -73.566 1932.422 -73.749 C 1944.5 -73.749 1951.82 -66.063 1951.82 -53.619 L 1951.82 0 L 1980.002 0 L 1980.002 -61.854 C 1980.002 -84.912 1965.911 -99.552 1943.951 -99.552 C 1928.579 -99.369 1916.867 -93.513 1909.913 -81.252 L 1909.913 -98.454 L 1881.731 -98.454 Z M 1995.003 -74.664 L 2008.728 -74.664 L 2008.728 -29.097 C 2008.728 -8.784 2022.087 1.281 2039.655 1.281 C 2048.805 1.281 2057.955 -1.281 2065.275 -5.49 L 2059.419 -26.169 C 2054.295 -23.79 2049.903 -22.509 2046.243 -22.509 C 2040.204 -22.326 2036.727 -25.62 2036.727 -33.855 L 2036.727 -74.481 L 2063.445 -74.481 L 2063.445 -94.062 L 2036.727 -94.062 L 2036.727 -121.146 L 2008.728 -121.146 L 2008.728 -94.062 L 1995.003 -94.062 Z M 2126.389 0 L 2154.571 0 L 2154.571 -47.397 C 2154.571 -64.05 2167.015 -74.847 2187.145 -73.017 L 2187.145 -99.552 C 2172.505 -99.369 2161.342 -92.781 2154.571 -80.703 L 2154.571 -98.454 L 2126.389 -98.454 Z M 2194.097 -48.861 C 2194.097 -19.032 2214.044 1.098 2245.52 1.098 C 2263.271 1.098 2277.728 -5.307 2287.61 -16.287 L 2272.787 -31.293 C 2266.016 -24.522 2257.232 -20.862 2247.899 -20.862 C 2235.272 -20.862 2225.756 -28.182 2222.462 -40.626 L 2293.1 -40.626 C 2295.479 -76.494 2279.375 -99.369 2244.788 -99.369 C 2214.776 -99.369 2194.097 -79.239 2194.097 -48.861 Z M 2221.913 -57.279 C 2224.109 -70.272 2232.527 -78.69 2244.971 -78.69 C 2257.964 -78.69 2266.382 -70.272 2266.748 -57.279 Z M 2303.347 -52.704 C 2303.347 -24.156 2320.915 -5.124 2346.352 -5.124 C 2359.345 -5.124 2369.41 -10.248 2375.998 -19.398 L 2375.998 -8.235 C 2375.998 5.124 2365.75 13.725 2349.646 13.725 C 2338.483 13.725 2328.052 10.248 2319.085 3.843 L 2308.654 23.607 C 2320 31.293 2334.823 36.6 2351.476 36.6 C 2382.952 36.6 2403.997 18.849 2403.997 -9.15 L 2403.997 -98.454 L 2375.998 -98.454 L 2375.998 -85.095 C 2369.227 -94.245 2358.979 -99.552 2345.62 -99.369 C 2320.549 -99.369 2303.347 -80.52 2303.347 -52.704 Z M 2329.699 -51.972 C 2329.882 -66.978 2339.215 -77.592 2352.94 -77.592 C 2366.665 -77.592 2375.998 -67.161 2375.998 -51.972 C 2375.998 -36.966 2366.665 -26.535 2352.94 -26.535 C 2339.032 -26.535 2329.882 -36.966 2329.699 -51.972 Z M 2428.699 -126.453 C 2428.699 -117.303 2434.921 -110.715 2443.888 -110.715 C 2452.855 -110.715 2459.077 -117.303 2459.077 -126.453 C 2459.077 -135.603 2452.855 -142.191 2443.888 -142.191 C 2434.921 -142.191 2428.699 -135.603 2428.699 -126.453 Z M 2429.797 0 L 2457.979 0 L 2457.979 -98.454 L 2429.797 -98.454 Z M 2474.81 -12.627 C 2485.973 -3.66 2501.528 1.098 2517.449 1.098 C 2539.775 1.098 2557.526 -9.516 2557.526 -29.646 C 2557.709 -64.416 2505.737 -56.913 2505.737 -71.736 C 2505.737 -76.86 2510.495 -79.056 2517.083 -79.056 C 2525.318 -79.056 2536.298 -75.579 2547.095 -69.54 L 2556.794 -88.755 C 2545.814 -95.709 2531.906 -99.735 2518.364 -99.735 C 2496.953 -99.735 2479.568 -89.304 2479.568 -68.991 C 2479.568 -34.404 2530.625 -42.822 2530.625 -27.084 C 2530.625 -21.777 2525.318 -19.398 2518.181 -19.398 C 2507.384 -19.398 2494.208 -23.79 2483.96 -31.659 Z M 2567.038 -74.664 L 2580.763 -74.664 L 2580.763 -29.097 C 2580.763 -8.784 2594.122 1.281 2611.69 1.281 C 2620.84 1.281 2629.99 -1.281 2637.31 -5.49 L 2631.454 -26.169 C 2626.33 -23.79 2621.938 -22.509 2618.278 -22.509 C 2612.239 -22.326 2608.762 -25.62 2608.762 -33.855 L 2608.762 -74.481 L 2635.48 -74.481 L 2635.48 -94.062 L 2608.762 -94.062 L 2608.762 -121.146 L 2580.763 -121.146 L 2580.763 -94.062 L 2567.038 -94.062 Z M 2654.33 0 L 2682.512 0 L 2682.512 -47.397 C 2682.512 -64.05 2694.956 -74.847 2715.086 -73.017 L 2715.086 -99.552 C 2700.446 -99.369 2689.283 -92.781 2682.512 -80.703 L 2682.512 -98.454 L 2654.33 -98.454 Z M 2719.478 -29.463 C 2719.478 -11.529 2732.288 1.281 2753.333 1.281 C 2767.058 1.281 2777.672 -3.294 2784.26 -11.529 L 2784.26 0 L 2811.893 0 L 2811.71 -64.233 C 2811.527 -86.376 2796.338 -99.552 2769.986 -99.552 C 2752.784 -99.552 2740.157 -95.526 2725.517 -88.206 L 2734.301 -68.808 C 2744.549 -74.481 2754.797 -77.409 2763.581 -77.409 C 2777.123 -77.409 2784.077 -71.37 2784.077 -60.939 L 2784.077 -59.109 L 2756.993 -59.109 C 2732.837 -58.926 2719.478 -47.946 2719.478 -29.463 Z M 2745.83 -31.293 C 2745.83 -39.162 2751.137 -42.456 2761.934 -42.456 L 2784.077 -42.456 L 2784.077 -33.672 C 2782.43 -25.254 2773.097 -18.849 2761.202 -18.849 C 2751.686 -18.849 2745.83 -23.79 2745.83 -31.293 Z M 2826.894 -74.664 L 2840.619 -74.664 L 2840.619 -29.097 C 2840.619 -8.784 2853.978 1.281 2871.546 1.281 C 2880.696 1.281 2889.846 -1.281 2897.166 -5.49 L 2891.31 -26.169 C 2886.186 -23.79 2881.794 -22.509 2878.134 -22.509 C 2872.095 -22.326 2868.618 -25.62 2868.618 -33.855 L 2868.618 -74.481 L 2895.336 -74.481 L 2895.336 -94.062 L 2868.618 -94.062 L 2868.618 -121.146 L 2840.619 -121.146 L 2840.619 -94.062 L 2826.894 -94.062 Z M 2913.088 -126.453 C 2913.088 -117.303 2919.31 -110.715 2928.277 -110.715 C 2937.244 -110.715 2943.466 -117.303 2943.466 -126.453 C 2943.466 -135.603 2937.244 -142.191 2928.277 -142.191 C 2919.31 -142.191 2913.088 -135.603 2913.088 -126.453 Z M 2914.186 0 L 2942.368 0 L 2942.368 -98.454 L 2914.186 -98.454 Z M 2961.029 -49.227 C 2961.029 -19.215 2982.257 1.098 3013.916 1.098 C 3045.392 1.098 3066.62 -19.215 3066.62 -49.227 C 3066.62 -79.422 3045.392 -99.369 3013.916 -99.369 C 2982.257 -99.369 2961.029 -79.422 2961.029 -49.227 Z M 2989.394 -48.861 C 2989.394 -64.965 2999.276 -75.945 3013.916 -75.945 C 3028.373 -75.945 3038.438 -64.965 3038.438 -48.861 C 3038.438 -32.757 3028.373 -21.777 3013.916 -21.777 C 2999.276 -21.777 2989.394 -32.757 2989.394 -48.861 Z M 3085.281 0 L 3113.463 0 L 3113.463 -48.495 C 3113.463 -62.952 3121.881 -73.566 3135.972 -73.749 C 3148.05 -73.749 3155.37 -66.063 3155.37 -53.619 L 3155.37 0 L 3183.552 0 L 3183.552 -61.854 C 3183.552 -84.912 3169.461 -99.552 3147.501 -99.552 C 3132.129 -99.369 3120.417 -93.513 3113.463 -81.252 L 3113.463 -98.454 L 3085.281 -98.454 Z" transform="matrix(1, 0, 0, 1, 625.822021, 1469)" style="white-space: pre;"/>
    <path d="M476.5 1281.5 545.239 1264 560 1182.5 574.761 1264 643.5 1281.5 574.761 1299 560 1380.5 545.239 1299Z" stroke="#FF015A" stroke-width="4.58333" stroke-miterlimit="8" fill="#FF015A" fill-rule="evenodd"/>
    <path d="M3191.5 778.334C3191.5 759.096 3207.1 743.5 3226.33 743.5L3848.67 743.5C3867.9 743.5 3883.5 759.096 3883.5 778.334L3883.5 917.666C3883.5 936.904 3867.9 952.5 3848.67 952.5L3226.33 952.5C3207.1 952.5 3191.5 936.904 3191.5 917.666Z" stroke="#0C90B2" stroke-width="4.58333" stroke-miterlimit="8" fill="#A00338" fill-rule="evenodd"/>
    <path d="M 25.477 0.876 Q 20.951 0.876 16.936 -0.693 Q 12.921 -2.263 9.891 -5.329 Q 6.862 -8.395 5.11 -12.957 Q 3.358 -17.52 3.358 -23.506 Q 3.358 -29.419 5.183 -34.054 Q 7.008 -38.69 10.074 -41.902 Q 13.14 -45.114 17.228 -46.793 Q 21.316 -48.472 25.842 -48.472 Q 30.441 -48.472 34.091 -46.61 Q 37.741 -44.749 40.15 -42.267 L 34.456 -35.405 Q 32.631 -37.084 30.623 -38.142 Q 28.616 -39.201 26.061 -39.201 Q 23.652 -39.201 21.498 -38.142 Q 19.345 -37.084 17.775 -35.113 Q 16.206 -33.142 15.293 -30.295 Q 14.381 -27.448 14.381 -23.871 Q 14.381 -16.498 17.52 -12.446 Q 20.659 -8.395 25.915 -8.395 Q 28.835 -8.395 31.134 -9.672 Q 33.434 -10.95 35.186 -12.848 L 40.88 -6.132 Q 34.894 0.876 25.477 0.876 Z M 64.748 0.876 Q 59.93 0.876 55.951 -0.839 Q 51.973 -2.555 49.126 -5.767 Q 46.279 -8.979 44.709 -13.578 Q 43.14 -18.177 43.14 -24.017 Q 43.14 -29.857 44.709 -34.419 Q 46.279 -38.982 49.126 -42.084 Q 51.973 -45.187 55.951 -46.829 Q 59.93 -48.472 64.748 -48.472 Q 69.566 -48.472 73.544 -46.829 Q 77.523 -45.187 80.37 -42.048 Q 83.217 -38.909 84.786 -34.346 Q 86.356 -29.784 86.356 -24.017 Q 86.356 -18.177 84.786 -13.578 Q 83.217 -8.979 80.37 -5.767 Q 77.523 -2.555 73.544 -0.839 Q 69.566 0.876 64.748 0.876 Z M 64.748 -8.395 Q 69.639 -8.395 72.486 -12.592 Q 75.333 -16.79 75.333 -24.017 Q 75.333 -31.171 72.486 -35.186 Q 69.639 -39.201 64.748 -39.201 Q 59.857 -39.201 57.01 -35.186 Q 54.163 -31.171 54.163 -24.017 Q 54.163 -16.79 57.01 -12.592 Q 59.857 -8.395 64.748 -8.395 Z M 95.33 0 L 95.33 -47.596 L 106.353 -47.596 L 118.763 -23.944 L 123.435 -13.432 L 123.727 -13.432 Q 123.362 -17.228 122.887 -21.9 Q 122.413 -26.572 122.413 -30.806 L 122.413 -47.596 L 132.633 -47.596 L 132.633 0 L 121.61 0 L 109.2 -23.725 L 104.528 -34.091 L 104.236 -34.091 Q 104.601 -30.149 105.075 -25.623 Q 105.55 -21.097 105.55 -16.863 L 105.55 0 Z M 143.861 0 L 143.861 -47.596 L 173.864 -47.596 L 173.864 -38.544 L 154.592 -38.544 L 154.592 -27.521 L 171.09 -27.521 L 171.09 -18.469 L 154.592 -18.469 L 154.592 0 Z M 182.112 0 L 182.112 -47.596 L 192.843 -47.596 L 192.843 0 Z M 204.091 0 L 204.091 -47.596 L 217.523 -47.596 Q 222.998 -47.596 227.378 -46.209 Q 231.758 -44.822 234.897 -41.938 Q 238.036 -39.055 239.715 -34.602 Q 241.394 -30.149 241.394 -24.017 Q 241.394 -17.885 239.715 -13.359 Q 238.036 -8.833 234.97 -5.876 Q 231.904 -2.92 227.634 -1.46 Q 223.363 0 218.107 0 Z M 214.822 -8.687 L 216.866 -8.687 Q 219.932 -8.687 222.414 -9.49 Q 224.896 -10.293 226.648 -12.081 Q 228.4 -13.87 229.386 -16.79 Q 230.371 -19.71 230.371 -24.017 Q 230.371 -28.251 229.386 -31.134 Q 228.4 -34.018 226.648 -35.733 Q 224.896 -37.449 222.414 -38.179 Q 219.932 -38.909 216.866 -38.909 L 214.822 -38.909 Z M 250.435 0 L 250.435 -47.596 L 280.219 -47.596 L 280.219 -38.544 L 261.166 -38.544 L 261.166 -28.981 L 277.372 -28.981 L 277.372 -20.002 L 261.166 -20.002 L 261.166 -9.052 L 280.949 -9.052 L 280.949 0 Z M 290.435 0 L 290.435 -47.596 L 301.458 -47.596 L 313.868 -23.944 L 318.54 -13.432 L 318.832 -13.432 Q 318.467 -17.228 317.993 -21.9 Q 317.518 -26.572 317.518 -30.806 L 317.518 -47.596 L 327.738 -47.596 L 327.738 0 L 316.715 0 L 304.305 -23.725 L 299.633 -34.091 L 299.341 -34.091 Q 299.706 -30.149 300.181 -25.623 Q 300.655 -21.097 300.655 -16.863 L 300.655 0 Z M 348.248 0 L 348.248 -38.544 L 335.181 -38.544 L 335.181 -47.596 L 372.119 -47.596 L 372.119 -38.544 L 359.052 -38.544 L 359.052 0 Z M 379.561 0 L 379.561 -47.596 L 390.292 -47.596 L 390.292 0 Z M 412.699 -24.09 L 411.531 -19.71 L 421.678 -19.71 L 420.583 -24.09 Q 419.561 -27.667 418.612 -31.682 Q 417.663 -35.697 416.714 -39.42 L 416.422 -39.42 Q 415.546 -35.624 414.633 -31.645 Q 413.721 -27.667 412.699 -24.09 Z M 395.471 0 L 410.363 -47.596 L 423.284 -47.596 L 438.176 0 L 426.788 0 L 423.868 -11.315 L 409.341 -11.315 L 406.421 0 Z M 443.363 0 L 443.363 -47.596 L 454.094 -47.596 L 454.094 -9.052 L 472.928 -9.052 L 472.928 0 Z" transform="matrix(1, 0, 0, 1, 3296.790039, 828)" style="fill: rgb(255, 255, 255); white-space: pre;"/>
    <path d="M 5.621 0 L 5.621 -47.596 L 21.973 -47.596 Q 25.915 -47.596 29.346 -46.829 Q 32.777 -46.063 35.332 -44.274 Q 37.887 -42.486 39.383 -39.529 Q 40.88 -36.573 40.88 -32.266 Q 40.88 -28.105 39.383 -25.039 Q 37.887 -21.973 35.332 -20.002 Q 32.777 -18.031 29.419 -17.082 Q 26.061 -16.133 22.265 -16.133 L 16.352 -16.133 L 16.352 0 Z M 16.352 -24.674 L 21.608 -24.674 Q 30.368 -24.674 30.368 -32.266 Q 30.368 -35.989 28.032 -37.522 Q 25.696 -39.055 21.316 -39.055 L 16.352 -39.055 Z M 49.121 0 L 49.121 -47.596 L 66.276 -47.596 Q 70.072 -47.596 73.394 -46.866 Q 76.715 -46.136 79.197 -44.42 Q 81.679 -42.705 83.139 -39.858 Q 84.599 -37.011 84.599 -32.777 Q 84.599 -27.521 82.3 -24.126 Q 80 -20.732 76.131 -19.053 L 86.935 0 L 74.89 0 L 65.765 -17.155 L 59.852 -17.155 L 59.852 0 Z M 59.852 -25.696 L 65.4 -25.696 Q 69.634 -25.696 71.861 -27.484 Q 74.087 -29.273 74.087 -32.777 Q 74.087 -36.281 71.861 -37.668 Q 69.634 -39.055 65.4 -39.055 L 59.852 -39.055 Z M 93.861 0 L 93.861 -47.596 L 104.592 -47.596 L 104.592 0 Z M 124.089 0 L 109.708 -47.596 L 121.096 -47.596 L 126.79 -25.404 Q 127.885 -21.462 128.725 -17.775 Q 129.564 -14.089 130.659 -10.147 L 130.951 -10.147 Q 131.973 -14.089 132.849 -17.775 Q 133.725 -21.462 134.747 -25.404 L 140.368 -47.596 L 151.318 -47.596 L 137.01 0 Z M 166.281 -24.09 L 165.113 -19.71 L 175.26 -19.71 L 174.165 -24.09 Q 173.143 -27.667 172.194 -31.682 Q 171.245 -35.697 170.296 -39.42 L 170.004 -39.42 Q 169.128 -35.624 168.215 -31.645 Q 167.303 -27.667 166.281 -24.09 Z M 149.053 0 L 163.945 -47.596 L 176.866 -47.596 L 191.758 0 L 180.37 0 L 177.45 -11.315 L 162.923 -11.315 L 160.003 0 Z M 200.872 0 L 200.872 -38.544 L 187.805 -38.544 L 187.805 -47.596 L 224.743 -47.596 L 224.743 -38.544 L 211.676 -38.544 L 211.676 0 Z M 232.185 0 L 232.185 -47.596 L 261.969 -47.596 L 261.969 -38.544 L 242.916 -38.544 L 242.916 -28.981 L 259.122 -28.981 L 259.122 -20.002 L 242.916 -20.002 L 242.916 -9.052 L 262.699 -9.052 L 262.699 0 Z" transform="matrix(1, 0, 0, 1, 3309.090088, 916)" style="fill: rgb(255, 255, 255); white-space: pre;"/>
    <path d="M 5.621 0 L 5.621 -47.596 L 21.9 -47.596 Q 25.623 -47.596 28.798 -47.048 Q 31.974 -46.501 34.346 -45.114 Q 36.719 -43.727 38.069 -41.464 Q 39.42 -39.201 39.42 -35.77 Q 39.42 -34.164 38.982 -32.558 Q 38.544 -30.952 37.741 -29.565 Q 36.938 -28.178 35.806 -27.083 Q 34.675 -25.988 33.215 -25.477 L 33.215 -25.185 Q 35.04 -24.747 36.573 -23.834 Q 38.106 -22.922 39.274 -21.535 Q 40.442 -20.148 41.099 -18.286 Q 41.756 -16.425 41.756 -14.016 Q 41.756 -10.366 40.332 -7.738 Q 38.909 -5.11 36.39 -3.394 Q 33.872 -1.679 30.514 -0.839 Q 27.156 0 23.287 0 Z M 16.352 -28.543 L 21.389 -28.543 Q 25.331 -28.543 27.119 -30.076 Q 28.908 -31.609 28.908 -34.164 Q 28.908 -36.938 27.083 -38.106 Q 25.258 -39.274 21.462 -39.274 L 16.352 -39.274 Z M 16.352 -8.322 L 22.411 -8.322 Q 31.244 -8.322 31.244 -14.746 Q 31.244 -17.885 29.054 -19.235 Q 26.864 -20.586 22.411 -20.586 L 16.352 -20.586 Z M 49.778 0 L 49.778 -47.596 L 79.562 -47.596 L 79.562 -38.544 L 60.509 -38.544 L 60.509 -28.981 L 76.715 -28.981 L 76.715 -20.002 L 60.509 -20.002 L 60.509 -9.052 L 80.292 -9.052 L 80.292 0 Z M 99.049 0 L 99.049 -38.544 L 85.982 -38.544 L 85.982 -47.596 L 122.92 -47.596 L 122.92 -38.544 L 109.853 -38.544 L 109.853 0 Z M 138.614 -24.09 L 137.446 -19.71 L 147.593 -19.71 L 146.498 -24.09 Q 145.476 -27.667 144.527 -31.682 Q 143.578 -35.697 142.629 -39.42 L 142.337 -39.42 Q 141.461 -35.624 140.548 -31.645 Q 139.636 -27.667 138.614 -24.09 Z M 121.386 0 L 136.278 -47.596 L 149.199 -47.596 L 164.091 0 L 152.703 0 L 149.783 -11.315 L 135.256 -11.315 L 132.336 0 Z" transform="matrix(1, 0, 0, 1, 3597.840088, 916)" style="fill: rgb(255, 255, 255); white-space: pre;"/>
  </g>
</svg>