<?xml version="1.0" encoding="utf-8"?>
<svg viewBox="381.097 311.799 3931.594 738.571" xmlns="http://www.w3.org/2000/svg">
  <defs>
    <clipPath id="clip0">
      <rect x="-46" y="421" width="4646" height="1330"/>
    </clipPath>
    <clipPath id="clip1">
      <rect x="965" y="1216" width="331" height="331"/>
    </clipPath>
    <clipPath id="clip2">
      <rect x="965" y="1216" width="331" height="331"/>
    </clipPath>
    <clipPath id="clip3">
      <rect x="965" y="1216" width="331" height="331"/>
    </clipPath>
  </defs>
  <g clip-path="url(#clip0)" transform="matrix(1, 0, 0, 1, 46.000001, -421.000013)">
    <path d="M3191.5 778.334C3191.5 759.096 3207.1 743.5 3226.33 743.5L3848.67 743.5C3867.9 743.5 3883.5 759.096 3883.5 778.334L3883.5 917.666C3883.5 936.904 3867.9 952.5 3848.67 952.5L3226.33 952.5C3207.1 952.5 3191.5 936.904 3191.5 917.666Z" stroke="#0C90B2" stroke-width="4.58333" stroke-miterlimit="8" fill="#A00338" fill-rule="evenodd"/>
    <path d="M 25.477 0.876 Q 20.951 0.876 16.936 -0.693 Q 12.921 -2.263 9.891 -5.329 Q 6.862 -8.395 5.11 -12.957 Q 3.358 -17.52 3.358 -23.506 Q 3.358 -29.419 5.183 -34.054 Q 7.008 -38.69 10.074 -41.902 Q 13.14 -45.114 17.228 -46.793 Q 21.316 -48.472 25.842 -48.472 Q 30.441 -48.472 34.091 -46.61 Q 37.741 -44.749 40.15 -42.267 L 34.456 -35.405 Q 32.631 -37.084 30.623 -38.142 Q 28.616 -39.201 26.061 -39.201 Q 23.652 -39.201 21.498 -38.142 Q 19.345 -37.084 17.775 -35.113 Q 16.206 -33.142 15.293 -30.295 Q 14.381 -27.448 14.381 -23.871 Q 14.381 -16.498 17.52 -12.446 Q 20.659 -8.395 25.915 -8.395 Q 28.835 -8.395 31.134 -9.672 Q 33.434 -10.95 35.186 -12.848 L 40.88 -6.132 Q 34.894 0.876 25.477 0.876 Z M 64.748 0.876 Q 59.93 0.876 55.951 -0.839 Q 51.973 -2.555 49.126 -5.767 Q 46.279 -8.979 44.709 -13.578 Q 43.14 -18.177 43.14 -24.017 Q 43.14 -29.857 44.709 -34.419 Q 46.279 -38.982 49.126 -42.084 Q 51.973 -45.187 55.951 -46.829 Q 59.93 -48.472 64.748 -48.472 Q 69.566 -48.472 73.544 -46.829 Q 77.523 -45.187 80.37 -42.048 Q 83.217 -38.909 84.786 -34.346 Q 86.356 -29.784 86.356 -24.017 Q 86.356 -18.177 84.786 -13.578 Q 83.217 -8.979 80.37 -5.767 Q 77.523 -2.555 73.544 -0.839 Q 69.566 0.876 64.748 0.876 Z M 64.748 -8.395 Q 69.639 -8.395 72.486 -12.592 Q 75.333 -16.79 75.333 -24.017 Q 75.333 -31.171 72.486 -35.186 Q 69.639 -39.201 64.748 -39.201 Q 59.857 -39.201 57.01 -35.186 Q 54.163 -31.171 54.163 -24.017 Q 54.163 -16.79 57.01 -12.592 Q 59.857 -8.395 64.748 -8.395 Z M 95.33 0 L 95.33 -47.596 L 106.353 -47.596 L 118.763 -23.944 L 123.435 -13.432 L 123.727 -13.432 Q 123.362 -17.228 122.887 -21.9 Q 122.413 -26.572 122.413 -30.806 L 122.413 -47.596 L 132.633 -47.596 L 132.633 0 L 121.61 0 L 109.2 -23.725 L 104.528 -34.091 L 104.236 -34.091 Q 104.601 -30.149 105.075 -25.623 Q 105.55 -21.097 105.55 -16.863 L 105.55 0 Z M 143.861 0 L 143.861 -47.596 L 173.864 -47.596 L 173.864 -38.544 L 154.592 -38.544 L 154.592 -27.521 L 171.09 -27.521 L 171.09 -18.469 L 154.592 -18.469 L 154.592 0 Z M 182.112 0 L 182.112 -47.596 L 192.843 -47.596 L 192.843 0 Z M 204.091 0 L 204.091 -47.596 L 217.523 -47.596 Q 222.998 -47.596 227.378 -46.209 Q 231.758 -44.822 234.897 -41.938 Q 238.036 -39.055 239.715 -34.602 Q 241.394 -30.149 241.394 -24.017 Q 241.394 -17.885 239.715 -13.359 Q 238.036 -8.833 234.97 -5.876 Q 231.904 -2.92 227.634 -1.46 Q 223.363 0 218.107 0 Z M 214.822 -8.687 L 216.866 -8.687 Q 219.932 -8.687 222.414 -9.49 Q 224.896 -10.293 226.648 -12.081 Q 228.4 -13.87 229.386 -16.79 Q 230.371 -19.71 230.371 -24.017 Q 230.371 -28.251 229.386 -31.134 Q 228.4 -34.018 226.648 -35.733 Q 224.896 -37.449 222.414 -38.179 Q 219.932 -38.909 216.866 -38.909 L 214.822 -38.909 Z M 250.435 0 L 250.435 -47.596 L 280.219 -47.596 L 280.219 -38.544 L 261.166 -38.544 L 261.166 -28.981 L 277.372 -28.981 L 277.372 -20.002 L 261.166 -20.002 L 261.166 -9.052 L 280.949 -9.052 L 280.949 0 Z M 290.435 0 L 290.435 -47.596 L 301.458 -47.596 L 313.868 -23.944 L 318.54 -13.432 L 318.832 -13.432 Q 318.467 -17.228 317.993 -21.9 Q 317.518 -26.572 317.518 -30.806 L 317.518 -47.596 L 327.738 -47.596 L 327.738 0 L 316.715 0 L 304.305 -23.725 L 299.633 -34.091 L 299.341 -34.091 Q 299.706 -30.149 300.181 -25.623 Q 300.655 -21.097 300.655 -16.863 L 300.655 0 Z M 348.248 0 L 348.248 -38.544 L 335.181 -38.544 L 335.181 -47.596 L 372.119 -47.596 L 372.119 -38.544 L 359.052 -38.544 L 359.052 0 Z M 379.561 0 L 379.561 -47.596 L 390.292 -47.596 L 390.292 0 Z M 412.699 -24.09 L 411.531 -19.71 L 421.678 -19.71 L 420.583 -24.09 Q 419.561 -27.667 418.612 -31.682 Q 417.663 -35.697 416.714 -39.42 L 416.422 -39.42 Q 415.546 -35.624 414.633 -31.645 Q 413.721 -27.667 412.699 -24.09 Z M 395.471 0 L 410.363 -47.596 L 423.284 -47.596 L 438.176 0 L 426.788 0 L 423.868 -11.315 L 409.341 -11.315 L 406.421 0 Z M 443.363 0 L 443.363 -47.596 L 454.094 -47.596 L 454.094 -9.052 L 472.928 -9.052 L 472.928 0 Z" transform="matrix(1, 0, 0, 1, 3296.790039, 828)" style="fill: rgb(255, 255, 255); white-space: pre;"/>
    <path d="M 5.621 0 L 5.621 -47.596 L 21.973 -47.596 Q 25.915 -47.596 29.346 -46.829 Q 32.777 -46.063 35.332 -44.274 Q 37.887 -42.486 39.383 -39.529 Q 40.88 -36.573 40.88 -32.266 Q 40.88 -28.105 39.383 -25.039 Q 37.887 -21.973 35.332 -20.002 Q 32.777 -18.031 29.419 -17.082 Q 26.061 -16.133 22.265 -16.133 L 16.352 -16.133 L 16.352 0 Z M 16.352 -24.674 L 21.608 -24.674 Q 30.368 -24.674 30.368 -32.266 Q 30.368 -35.989 28.032 -37.522 Q 25.696 -39.055 21.316 -39.055 L 16.352 -39.055 Z M 49.121 0 L 49.121 -47.596 L 66.276 -47.596 Q 70.072 -47.596 73.394 -46.866 Q 76.715 -46.136 79.197 -44.42 Q 81.679 -42.705 83.139 -39.858 Q 84.599 -37.011 84.599 -32.777 Q 84.599 -27.521 82.3 -24.126 Q 80 -20.732 76.131 -19.053 L 86.935 0 L 74.89 0 L 65.765 -17.155 L 59.852 -17.155 L 59.852 0 Z M 59.852 -25.696 L 65.4 -25.696 Q 69.634 -25.696 71.861 -27.484 Q 74.087 -29.273 74.087 -32.777 Q 74.087 -36.281 71.861 -37.668 Q 69.634 -39.055 65.4 -39.055 L 59.852 -39.055 Z M 93.861 0 L 93.861 -47.596 L 104.592 -47.596 L 104.592 0 Z M 124.089 0 L 109.708 -47.596 L 121.096 -47.596 L 126.79 -25.404 Q 127.885 -21.462 128.725 -17.775 Q 129.564 -14.089 130.659 -10.147 L 130.951 -10.147 Q 131.973 -14.089 132.849 -17.775 Q 133.725 -21.462 134.747 -25.404 L 140.368 -47.596 L 151.318 -47.596 L 137.01 0 Z M 166.281 -24.09 L 165.113 -19.71 L 175.26 -19.71 L 174.165 -24.09 Q 173.143 -27.667 172.194 -31.682 Q 171.245 -35.697 170.296 -39.42 L 170.004 -39.42 Q 169.128 -35.624 168.215 -31.645 Q 167.303 -27.667 166.281 -24.09 Z M 149.053 0 L 163.945 -47.596 L 176.866 -47.596 L 191.758 0 L 180.37 0 L 177.45 -11.315 L 162.923 -11.315 L 160.003 0 Z M 200.872 0 L 200.872 -38.544 L 187.805 -38.544 L 187.805 -47.596 L 224.743 -47.596 L 224.743 -38.544 L 211.676 -38.544 L 211.676 0 Z M 232.185 0 L 232.185 -47.596 L 261.969 -47.596 L 261.969 -38.544 L 242.916 -38.544 L 242.916 -28.981 L 259.122 -28.981 L 259.122 -20.002 L 242.916 -20.002 L 242.916 -9.052 L 262.699 -9.052 L 262.699 0 Z M 286.79 0 L 286.79 -47.596 L 303.069 -47.596 Q 306.792 -47.596 309.967 -47.048 Q 313.143 -46.501 315.515 -45.114 Q 317.888 -43.727 319.238 -41.464 Q 320.589 -39.201 320.589 -35.77 Q 320.589 -34.164 320.151 -32.558 Q 319.713 -30.952 318.91 -29.565 Q 318.107 -28.178 316.975 -27.083 Q 315.844 -25.988 314.384 -25.477 L 314.384 -25.185 Q 316.209 -24.747 317.742 -23.834 Q 319.275 -22.922 320.443 -21.535 Q 321.611 -20.148 322.268 -18.286 Q 322.925 -16.425 322.925 -14.016 Q 322.925 -10.366 321.501 -7.738 Q 320.078 -5.11 317.559 -3.394 Q 315.041 -1.679 311.683 -0.839 Q 308.325 0 304.456 0 Z M 297.521 -28.543 L 302.558 -28.543 Q 306.5 -28.543 308.288 -30.076 Q 310.077 -31.609 310.077 -34.164 Q 310.077 -36.938 308.252 -38.106 Q 306.427 -39.274 302.631 -39.274 L 297.521 -39.274 Z M 297.521 -8.322 L 303.58 -8.322 Q 312.413 -8.322 312.413 -14.746 Q 312.413 -17.885 310.223 -19.235 Q 308.033 -20.586 303.58 -20.586 L 297.521 -20.586 Z M 330.946 0 L 330.946 -47.596 L 360.73 -47.596 L 360.73 -38.544 L 341.677 -38.544 L 341.677 -28.981 L 357.883 -28.981 L 357.883 -20.002 L 341.677 -20.002 L 341.677 -9.052 L 361.46 -9.052 L 361.46 0 Z M 380.217 0 L 380.217 -38.544 L 367.15 -38.544 L 367.15 -47.596 L 404.088 -47.596 L 404.088 -38.544 L 391.021 -38.544 L 391.021 0 Z M 419.782 -24.09 L 418.614 -19.71 L 428.761 -19.71 L 427.666 -24.09 Q 426.644 -27.667 425.695 -31.682 Q 424.746 -35.697 423.797 -39.42 L 423.505 -39.42 Q 422.629 -35.624 421.717 -31.645 Q 420.804 -27.667 419.782 -24.09 Z M 402.554 0 L 417.446 -47.596 L 430.367 -47.596 L 445.259 0 L 433.871 0 L 430.951 -11.315 L 416.424 -11.315 L 413.504 0 Z" transform="matrix(1, 0, 0, 1, 3309.090088, 916)" style="fill: rgb(255, 255, 255); white-space: pre;"/>
    <path d="M 764.664 -56.337 Q 706.428 -56.97 647.559 -62.667 Q 588.69 -68.364 532.037 -76.593 Q 475.383 -84.822 421.895 -94.634 Q 368.406 -104.445 320.298 -113.94 Q 266.493 -124.701 220.284 -133.247 Q 174.075 -141.792 136.095 -145.59 Q 60.135 -153.186 36.714 -136.095 Q 27.852 -129.765 25.953 -117.105 Q 25.32 -112.041 21.206 -108.56 Q 17.091 -105.078 12.027 -105.711 Q 6.963 -106.977 3.482 -110.775 Q 0 -114.573 1.266 -119.637 Q 3.165 -143.058 22.155 -156.984 Q 38.613 -169.011 67.098 -171.86 Q 95.583 -174.708 133.88 -171.227 Q 172.176 -167.745 220.601 -158.883 Q 269.025 -150.021 325.362 -139.26 Q 376.635 -129.132 431.706 -119.004 Q 486.777 -108.876 544.697 -100.647 Q 602.616 -92.418 662.118 -87.038 Q 721.62 -81.657 780.489 -81.657 Q 835.56 -81.657 889.365 -87.354 Q 943.17 -93.051 994.443 -106.028 Q 1045.716 -119.004 1093.508 -140.21 Q 1141.299 -161.415 1184.343 -193.065 Q 1188.774 -196.23 1193.838 -195.281 Q 1198.902 -194.331 1202.067 -189.9 Q 1205.232 -185.469 1204.599 -180.405 Q 1203.966 -175.341 1199.535 -172.176 Q 1111.548 -108.243 993.81 -79.758 Q 898.227 -56.337 779.856 -56.337 Z M 1379.3 0 Q 1360.31 0 1347.017 -10.445 Q 1333.724 -20.889 1325.179 -36.398 Q 1316.633 -51.906 1311.253 -69.947 Q 1305.872 -87.987 1303.34 -103.179 Q 1300.175 -89.886 1294.795 -72.162 Q 1289.414 -54.438 1280.869 -38.297 Q 1272.323 -22.155 1260.296 -11.078 Q 1248.269 0 1231.811 0 Q 1215.353 0 1204.909 -10.761 Q 1194.464 -21.522 1188.451 -38.613 Q 1182.437 -55.704 1180.222 -76.91 Q 1178.006 -98.115 1178.006 -119.004 Q 1178.006 -137.361 1179.272 -154.136 Q 1180.538 -170.91 1181.804 -182.937 Q 1182.437 -188.001 1185.919 -191.483 Q 1189.4 -194.964 1195.097 -194.964 Q 1207.124 -194.964 1207.124 -182.304 Q 1205.225 -169.011 1204.276 -154.769 Q 1203.326 -140.526 1203.326 -122.169 Q 1203.326 -105.711 1204.592 -88.304 Q 1205.858 -70.896 1209.023 -56.97 Q 1212.188 -43.044 1217.569 -34.182 Q 1222.949 -25.32 1231.178 -25.32 Q 1248.902 -25.32 1266.626 -68.997 Q 1284.35 -112.674 1294.478 -206.358 Q 1294.478 -211.422 1297.96 -214.587 Q 1301.441 -217.752 1306.505 -217.752 Q 1311.569 -217.752 1315.051 -214.587 Q 1318.532 -211.422 1319.165 -206.358 Q 1320.431 -195.597 1321.697 -178.19 Q 1322.963 -160.782 1325.179 -140.526 Q 1327.394 -120.27 1331.192 -99.698 Q 1334.99 -79.125 1341.32 -62.667 Q 1347.65 -46.209 1356.829 -35.765 Q 1366.007 -25.32 1379.3 -25.32 Q 1396.391 -25.32 1414.748 -41.462 Q 1433.105 -57.603 1450.829 -81.974 Q 1468.553 -106.344 1484.378 -134.513 Q 1500.203 -162.681 1512.23 -187.368 Q 1516.028 -194.331 1523.624 -194.331 Q 1528.688 -194.331 1532.17 -190.217 Q 1535.651 -186.102 1535.651 -181.038 Q 1535.651 -179.772 1535.018 -176.924 Q 1534.385 -174.075 1529.954 -165.846 Q 1519.193 -145.59 1503.368 -117.105 Q 1487.543 -88.62 1468.237 -62.667 Q 1448.93 -36.714 1426.142 -18.357 Q 1403.354 0 1379.3 0 Z M 1511.596 -182.937 Q 1511.596 -188.001 1515.394 -191.483 Q 1519.192 -194.964 1524.889 -194.964 Q 1529.953 -194.964 1532.801 -191.166 Q 1535.65 -187.368 1536.916 -181.671 Q 1539.448 -169.011 1541.663 -153.819 Q 1543.879 -138.627 1545.145 -125.334 Q 1547.677 -136.728 1551.791 -154.452 Q 1555.906 -172.176 1561.919 -188.951 Q 1567.933 -205.725 1576.162 -217.752 Q 1584.391 -229.779 1595.152 -229.779 Q 1602.748 -229.779 1607.179 -223.449 Q 1611.61 -217.119 1614.458 -206.358 Q 1617.307 -195.597 1619.206 -181.355 Q 1621.105 -167.112 1624.27 -151.287 Q 1628.068 -129.132 1633.132 -106.977 Q 1638.196 -84.822 1644.842 -66.465 Q 1651.489 -48.108 1659.718 -36.714 Q 1667.947 -25.32 1678.708 -25.32 Q 1695.799 -25.32 1714.156 -41.462 Q 1732.513 -57.603 1750.237 -81.974 Q 1767.961 -106.344 1783.786 -134.513 Q 1799.611 -162.681 1811.638 -187.368 Q 1815.436 -194.331 1823.032 -194.331 Q 1828.096 -194.331 1831.577 -190.217 Q 1835.059 -186.102 1835.059 -181.038 Q 1835.059 -179.772 1834.426 -176.924 Q 1833.793 -174.075 1829.362 -165.846 Q 1818.601 -145.59 1802.776 -117.105 Q 1786.951 -88.62 1767.644 -62.667 Q 1748.338 -36.714 1725.55 -18.357 Q 1702.762 0 1678.708 0 Q 1663.516 0 1651.805 -9.812 Q 1640.095 -19.623 1631.549 -35.448 Q 1623.004 -51.273 1616.674 -71.529 Q 1610.344 -91.785 1605.596 -112.991 Q 1600.849 -134.196 1597.684 -154.769 Q 1594.519 -175.341 1591.354 -191.799 Q 1582.492 -171.543 1575.845 -146.54 Q 1569.199 -121.536 1564.451 -96.849 Q 1559.704 -72.162 1557.172 -49.691 Q 1554.64 -27.219 1554.007 -12.027 Q 1552.741 -1.266 1541.347 0 Q 1529.953 0 1528.687 -12.027 Q 1528.687 -12.027 1527.737 -28.485 Q 1526.788 -44.943 1524.889 -69.947 Q 1522.99 -94.95 1519.825 -125.018 Q 1516.66 -155.085 1511.596 -182.937 Z M 1769.226 -301.941 Q 1761.63 -301.941 1758.148 -305.739 Q 1754.667 -309.537 1754.667 -314.601 Q 1754.667 -319.032 1757.199 -322.514 Q 1759.731 -325.995 1765.428 -327.261 L 1812.903 -332.958 Q 1816.068 -381.699 1823.347 -411.45 Q 1830.627 -441.201 1847.085 -441.201 Q 1858.479 -441.201 1865.442 -430.757 Q 1872.405 -420.312 1875.886 -405.753 Q 1879.368 -391.194 1880.317 -376.319 Q 1881.267 -361.443 1881.267 -352.581 Q 1881.267 -349.416 1880.95 -346.884 Q 1880.634 -344.352 1880.634 -341.82 L 1925.577 -347.517 Q 1931.907 -347.517 1935.072 -343.719 Q 1938.237 -339.921 1938.237 -334.857 Q 1938.237 -330.426 1935.705 -326.945 Q 1933.173 -323.463 1927.476 -322.197 L 1878.735 -315.867 Q 1876.203 -294.978 1871.455 -274.406 Q 1866.708 -253.833 1860.694 -236.426 Q 1854.681 -219.018 1848.667 -205.092 Q 1842.654 -191.166 1836.957 -182.937 Q 1836.957 -164.58 1839.489 -137.678 Q 1842.021 -110.775 1847.718 -85.772 Q 1853.415 -60.768 1862.593 -43.044 Q 1871.772 -25.32 1885.065 -25.32 Q 1902.156 -25.32 1920.513 -41.462 Q 1938.87 -57.603 1956.594 -81.974 Q 1974.318 -106.344 1990.143 -134.513 Q 2005.968 -162.681 2017.995 -187.368 Q 2021.793 -194.331 2029.389 -194.331 Q 2034.453 -194.331 2037.934 -190.217 Q 2041.416 -186.102 2041.416 -181.038 Q 2041.416 -179.772 2040.783 -176.924 Q 2040.15 -174.075 2035.719 -165.846 Q 2024.958 -145.59 2009.133 -117.105 Q 1993.308 -88.62 1974.001 -62.667 Q 1954.695 -36.714 1931.907 -18.357 Q 1909.119 0 1885.065 0 Q 1866.708 0 1854.048 -12.344 Q 1841.388 -24.687 1833.159 -44.31 Q 1824.93 -63.933 1820.499 -88.304 Q 1816.068 -112.674 1813.852 -137.361 Q 1811.637 -162.048 1811.32 -184.203 Q 1811.004 -206.358 1811.004 -220.917 Q 1811.004 -243.705 1811.004 -265.227 Q 1811.004 -286.749 1811.637 -307.005 Z M 1847.718 -409.551 Q 1844.553 -392.46 1842.654 -374.103 Q 1840.755 -355.746 1839.489 -336.756 L 1855.947 -338.655 L 1855.947 -344.985 Q 1855.947 -373.47 1853.415 -388.029 Q 1850.883 -402.588 1847.718 -409.551 Z M 1836.957 -244.338 Q 1848.351 -278.52 1853.415 -312.702 L 1838.223 -310.803 Q 1836.957 -292.446 1836.957 -275.672 Q 1836.957 -258.897 1836.957 -244.338 Z M 2090.787 -25.32 Q 2107.878 -25.32 2126.235 -41.462 Q 2144.592 -57.603 2162.316 -81.974 Q 2180.04 -106.344 2195.865 -134.513 Q 2211.69 -162.681 2223.717 -187.368 Q 2227.515 -194.331 2235.111 -194.331 Q 2240.175 -194.331 2243.657 -190.217 Q 2247.138 -186.102 2247.138 -181.038 Q 2247.138 -179.772 2246.505 -176.924 Q 2245.872 -174.075 2241.441 -165.846 Q 2230.68 -145.59 2214.855 -117.105 Q 2199.03 -88.62 2179.724 -62.667 Q 2160.417 -36.714 2137.629 -18.357 Q 2114.841 0 2090.787 0 Q 2065.467 0 2050.592 -16.142 Q 2035.716 -32.283 2028.12 -55.388 Q 2020.524 -78.492 2018.309 -104.129 Q 2016.093 -129.765 2016.093 -149.388 Q 2016.093 -158.25 2016.093 -166.163 Q 2016.093 -174.075 2016.726 -182.937 Q 2017.359 -188.001 2020.841 -191.483 Q 2024.322 -194.964 2030.019 -194.964 Q 2035.083 -194.964 2038.565 -191.166 Q 2042.046 -187.368 2042.046 -181.671 Q 2041.413 -173.442 2041.413 -165.53 Q 2041.413 -157.617 2041.413 -149.388 Q 2041.413 -139.26 2042.679 -118.688 Q 2043.945 -98.115 2048.693 -77.226 Q 2053.44 -56.337 2063.252 -40.829 Q 2073.063 -25.32 2090.787 -25.32 Z M 2014.827 -295.611 Q 2014.827 -298.776 2015.46 -300.359 Q 2016.093 -301.941 2016.093 -303.207 Q 2016.093 -305.106 2014.827 -306.689 Q 2013.561 -308.271 2013.561 -312.702 Q 2013.561 -317.133 2017.043 -321.248 Q 2020.524 -325.362 2026.221 -325.362 Q 2034.45 -325.362 2037.932 -318.083 Q 2041.413 -310.803 2041.413 -303.207 Q 2041.413 -296.877 2038.881 -289.914 Q 2036.349 -282.951 2027.487 -282.951 Q 2020.524 -282.951 2017.676 -286.749 Q 2014.827 -290.547 2014.827 -295.611 Z M 2246.5 -141.159 Q 2246.5 -133.563 2246.5 -125.651 Q 2246.5 -117.738 2247.766 -109.509 Q 2262.958 -151.287 2262.958 -176.607 Q 2262.325 -189.267 2259.793 -195.914 Q 2257.261 -202.56 2255.995 -203.826 Q 2249.032 -194.331 2247.766 -177.557 Q 2246.5 -160.782 2246.5 -141.159 Z M 2297.14 0 Q 2274.985 0 2260.426 -13.293 Q 2245.867 -26.586 2237.005 -48.425 Q 2228.143 -70.263 2224.662 -97.482 Q 2221.18 -124.701 2221.18 -153.186 Q 2221.18 -169.011 2223.079 -182.937 Q 2224.978 -196.863 2229.093 -207.308 Q 2233.207 -217.752 2240.17 -223.766 Q 2247.133 -229.779 2256.628 -229.779 Q 2267.389 -229.779 2277.834 -217.119 Q 2288.278 -204.459 2288.911 -175.974 Q 2288.911 -155.718 2281.315 -127.866 Q 2273.719 -100.014 2257.261 -65.199 Q 2263.591 -47.475 2273.086 -36.398 Q 2282.581 -25.32 2297.14 -25.32 Q 2314.231 -25.32 2332.588 -41.462 Q 2350.945 -57.603 2368.669 -81.974 Q 2386.393 -106.344 2402.218 -134.513 Q 2418.043 -162.681 2430.07 -187.368 Q 2433.868 -194.331 2441.464 -194.331 Q 2446.528 -194.331 2450.01 -190.217 Q 2453.491 -186.102 2453.491 -181.038 Q 2453.491 -179.772 2452.858 -176.924 Q 2452.225 -174.075 2447.794 -165.846 Q 2437.033 -145.59 2421.208 -117.105 Q 2405.383 -88.62 2386.077 -62.667 Q 2366.77 -36.714 2343.982 -18.357 Q 2321.194 0 2297.14 0 Z M 2595.914 -25.32 Q 2613.005 -25.32 2631.362 -41.462 Q 2649.719 -57.603 2667.443 -81.974 Q 2685.167 -106.344 2700.992 -134.513 Q 2716.817 -162.681 2728.844 -187.368 Q 2732.642 -194.331 2740.238 -194.331 Q 2745.302 -194.331 2748.784 -190.217 Q 2752.265 -186.102 2752.265 -181.038 Q 2752.265 -179.772 2751.632 -176.924 Q 2750.999 -174.075 2746.568 -165.846 Q 2735.807 -145.59 2719.982 -117.105 Q 2704.157 -88.62 2684.851 -62.667 Q 2665.544 -36.714 2642.756 -18.357 Q 2619.968 0 2595.914 0 Q 2573.759 0 2560.15 -16.142 Q 2546.54 -32.283 2538.311 -58.236 Q 2535.779 -49.374 2530.399 -39.246 Q 2525.018 -29.118 2517.106 -20.256 Q 2509.193 -11.394 2499.065 -5.381 Q 2488.937 0.633 2476.91 0.633 Q 2459.186 0.633 2446.21 -7.913 Q 2433.233 -16.458 2425.004 -30.384 Q 2416.775 -44.31 2412.977 -62.667 Q 2409.179 -81.024 2409.179 -100.647 Q 2409.179 -124.068 2414.56 -146.856 Q 2419.94 -169.644 2430.068 -188.001 Q 2440.196 -206.358 2455.072 -217.752 Q 2469.947 -229.146 2489.57 -229.146 Q 2506.661 -229.146 2521.853 -217.119 L 2521.853 -220.917 Q 2521.853 -266.493 2522.803 -306.689 Q 2523.752 -346.884 2527.55 -376.635 Q 2531.348 -406.386 2538.628 -423.794 Q 2545.907 -441.201 2557.934 -441.201 Q 2569.328 -441.201 2576.291 -430.757 Q 2583.254 -420.312 2586.736 -405.753 Q 2590.217 -391.194 2591.167 -376.319 Q 2592.116 -361.443 2592.116 -352.581 Q 2592.116 -327.261 2587.685 -301.625 Q 2583.254 -275.988 2576.608 -252.884 Q 2569.961 -229.779 2562.049 -211.422 Q 2554.136 -193.065 2547.806 -182.937 Q 2547.806 -164.58 2550.338 -137.678 Q 2552.87 -110.775 2558.567 -85.772 Q 2564.264 -60.768 2573.443 -43.044 Q 2582.621 -25.32 2595.914 -25.32 Z M 2476.91 -24.687 Q 2490.203 -24.687 2499.698 -36.081 Q 2509.193 -47.475 2514.89 -62.984 Q 2520.587 -78.492 2523.436 -95.267 Q 2526.284 -112.041 2526.284 -122.802 Q 2526.284 -131.031 2525.335 -144.957 Q 2524.385 -158.883 2520.587 -171.86 Q 2516.789 -184.836 2508.877 -194.331 Q 2500.964 -203.826 2487.038 -203.826 Q 2475.644 -203.826 2466.149 -194.015 Q 2456.654 -184.203 2449.375 -168.378 Q 2442.095 -152.553 2438.297 -133.247 Q 2434.499 -113.94 2434.499 -94.95 Q 2434.499 -66.465 2444.627 -45.576 Q 2454.755 -24.687 2476.91 -24.687 Z M 2558.567 -409.551 Q 2555.402 -389.928 2553.187 -368.09 Q 2550.971 -346.251 2549.705 -324.413 Q 2548.439 -302.574 2548.123 -282.002 Q 2547.806 -261.429 2547.806 -244.338 Q 2556.668 -269.025 2561.732 -294.662 Q 2566.796 -320.298 2566.796 -344.985 Q 2566.796 -373.47 2564.264 -388.029 Q 2561.732 -402.588 2558.567 -409.551 Z M 3153.594 -56.97 Q 3035.223 -56.97 2939.64 -80.391 Q 2821.902 -108.876 2733.915 -172.809 Q 2729.484 -175.974 2728.851 -181.038 Q 2728.218 -186.102 2731.383 -190.533 Q 2734.548 -194.964 2739.612 -195.914 Q 2744.676 -196.863 2749.107 -193.698 Q 2791.518 -162.048 2839.31 -140.843 Q 2887.101 -119.637 2938.374 -106.661 Q 2989.647 -93.684 3043.769 -87.987 Q 3097.89 -82.29 3152.961 -82.29 Q 3211.83 -82.29 3271.332 -87.671 Q 3330.834 -93.051 3388.754 -101.28 Q 3446.673 -109.509 3501.744 -119.637 Q 3556.815 -129.765 3608.088 -139.893 Q 3664.425 -150.654 3712.85 -159.516 Q 3761.274 -168.378 3799.571 -171.86 Q 3837.867 -175.341 3866.352 -172.493 Q 3894.837 -169.644 3911.295 -157.617 Q 3930.285 -143.691 3932.184 -120.27 Q 3933.45 -115.206 3929.969 -111.408 Q 3926.487 -107.61 3921.423 -106.344 Q 3916.359 -105.711 3912.245 -109.193 Q 3908.13 -112.674 3907.497 -117.738 Q 3905.598 -130.398 3896.736 -136.728 Q 3873.315 -153.819 3797.355 -146.223 Q 3759.375 -142.425 3713.166 -133.88 Q 3666.957 -125.334 3613.152 -114.573 Q 3565.044 -105.078 3511.556 -95.267 Q 3458.067 -85.455 3401.414 -77.226 Q 3344.76 -68.997 3285.891 -63.3 Q 3227.022 -57.603 3168.786 -56.97 Z" transform="matrix(1, 0, 0, 1, 334.169006, 1174)" style="fill: rgb(12, 144, 178); white-space: pre;"/>
    <path d="M 1.464 -103.578 L 40.443 -103.578 L 40.443 0 L 69.357 0 L 69.357 -103.578 L 108.519 -103.578 L 108.519 -128.1 L 1.464 -128.1 Z M 124.06 0 L 152.974 0 L 152.974 -128.1 L 124.06 -128.1 Z M 172.192 -64.05 C 172.192 -26.901 201.655 1.281 240.451 1.281 C 258.202 1.281 278.881 -5.49 292.423 -15.372 L 292.423 -64.599 L 267.352 -64.599 L 267.352 -30.927 C 259.117 -26.718 249.967 -23.973 242.281 -23.973 C 219.589 -23.973 201.838 -41.358 201.838 -64.05 C 201.838 -86.559 219.406 -103.944 242.098 -103.944 C 254.542 -103.944 267.718 -98.454 277.234 -89.67 L 293.521 -110.349 C 280.528 -121.695 261.13 -129.015 242.098 -129.015 C 202.204 -129.015 172.192 -101.016 172.192 -64.05 Z M 308.526 -64.05 C 308.526 -26.901 338.172 1.281 377.334 1.281 C 416.496 1.281 446.142 -27.084 446.142 -64.05 C 446.142 -101.199 416.496 -129.015 377.334 -129.015 C 338.172 -129.015 308.526 -101.382 308.526 -64.05 Z M 338.172 -64.05 C 338.172 -86.559 356.106 -103.761 377.7 -103.761 C 399.111 -103.761 416.496 -86.559 416.496 -64.05 C 416.496 -41.541 399.111 -23.973 377.7 -23.973 C 356.289 -23.973 338.172 -41.541 338.172 -64.05 Z M 465.167 0 L 494.081 0 L 494.081 -36.6 L 520.799 -36.6 L 523.544 -36.6 L 543.857 0 L 576.614 0 L 549.347 -42.273 C 564.902 -49.593 573.32 -63.867 573.32 -83.631 C 573.32 -111.996 554.288 -128.1 520.799 -128.1 L 465.167 -128.1 Z M 494.081 -60.756 L 494.081 -104.127 L 520.799 -104.127 C 536.72 -104.127 545.87 -96.99 545.87 -82.716 C 545.87 -68.076 536.72 -60.756 520.799 -60.756 Z M 631.88 -74.664 L 645.605 -74.664 L 645.605 -29.097 C 645.605 -8.784 658.964 1.281 676.532 1.281 C 685.682 1.281 694.832 -1.281 702.152 -5.49 L 696.296 -26.169 C 691.172 -23.79 686.78 -22.509 683.12 -22.509 C 677.081 -22.326 673.604 -25.62 673.604 -33.855 L 673.604 -74.481 L 700.322 -74.481 L 700.322 -94.062 L 673.604 -94.062 L 673.604 -121.146 L 645.605 -121.146 L 645.605 -94.062 L 631.88 -94.062 Z M 711.475 -29.463 C 711.475 -11.529 724.285 1.281 745.33 1.281 C 759.055 1.281 769.669 -3.294 776.257 -11.529 L 776.257 0 L 803.89 0 L 803.707 -64.233 C 803.524 -86.376 788.335 -99.552 761.983 -99.552 C 744.781 -99.552 732.154 -95.526 717.514 -88.206 L 726.298 -68.808 C 736.546 -74.481 746.794 -77.409 755.578 -77.409 C 769.12 -77.409 776.074 -71.37 776.074 -60.939 L 776.074 -59.109 L 748.99 -59.109 C 724.834 -58.926 711.475 -47.946 711.475 -29.463 Z M 737.827 -31.293 C 737.827 -39.162 743.134 -42.456 753.931 -42.456 L 776.074 -42.456 L 776.074 -33.672 C 774.427 -25.254 765.094 -18.849 753.199 -18.849 C 743.683 -18.849 737.827 -23.79 737.827 -31.293 Z M 815.963 0 L 847.073 0 L 868.667 -32.208 L 888.431 0 L 920.822 0 L 887.333 -50.508 L 918.626 -98.454 L 887.882 -98.454 L 868.667 -68.625 L 850.55 -98.454 L 818.342 -98.454 L 850.001 -50.325 Z M 971.693 -49.593 C 971.693 -19.215 990.176 1.098 1018.175 1.098 C 1031.717 1.098 1042.331 -4.392 1049.285 -14.457 L 1049.285 0 L 1077.284 0 L 1077.284 -135.786 L 1049.285 -135.786 L 1049.285 -83.997 C 1042.148 -94.062 1031.351 -99.552 1017.443 -99.552 C 989.993 -99.552 971.693 -79.605 971.693 -49.593 Z M 999.875 -48.861 C 1000.058 -64.782 1010.123 -76.128 1024.763 -76.128 C 1039.22 -76.128 1049.285 -64.965 1049.285 -48.861 C 1049.285 -32.757 1039.22 -21.594 1024.763 -21.594 C 1009.94 -21.594 1000.058 -32.757 999.875 -48.861 Z M 1097.78 -29.463 C 1097.78 -11.529 1110.59 1.281 1131.635 1.281 C 1145.36 1.281 1155.974 -3.294 1162.562 -11.529 L 1162.562 0 L 1190.195 0 L 1190.012 -64.233 C 1189.829 -86.376 1174.64 -99.552 1148.288 -99.552 C 1131.086 -99.552 1118.459 -95.526 1103.819 -88.206 L 1112.603 -68.808 C 1122.851 -74.481 1133.099 -77.409 1141.883 -77.409 C 1155.425 -77.409 1162.379 -71.37 1162.379 -60.939 L 1162.379 -59.109 L 1135.295 -59.109 C 1111.139 -58.926 1097.78 -47.946 1097.78 -29.463 Z M 1124.132 -31.293 C 1124.132 -39.162 1129.439 -42.456 1140.236 -42.456 L 1162.379 -42.456 L 1162.379 -33.672 C 1160.732 -25.254 1151.399 -18.849 1139.504 -18.849 C 1129.988 -18.849 1124.132 -23.79 1124.132 -31.293 Z M 1205.196 -74.664 L 1218.921 -74.664 L 1218.921 -29.097 C 1218.921 -8.784 1232.28 1.281 1249.848 1.281 C 1258.998 1.281 1268.148 -1.281 1275.468 -5.49 L 1269.612 -26.169 C 1264.488 -23.79 1260.096 -22.509 1256.436 -22.509 C 1250.397 -22.326 1246.92 -25.62 1246.92 -33.855 L 1246.92 -74.481 L 1273.638 -74.481 L 1273.638 -94.062 L 1246.92 -94.062 L 1246.92 -121.146 L 1218.921 -121.146 L 1218.921 -94.062 L 1205.196 -94.062 Z M 1284.802 -29.463 C 1284.802 -11.529 1297.612 1.281 1318.657 1.281 C 1332.382 1.281 1342.996 -3.294 1349.584 -11.529 L 1349.584 0 L 1377.217 0 L 1377.034 -64.233 C 1376.851 -86.376 1361.662 -99.552 1335.31 -99.552 C 1318.108 -99.552 1305.481 -95.526 1290.841 -88.206 L 1299.625 -68.808 C 1309.873 -74.481 1320.121 -77.409 1328.905 -77.409 C 1342.447 -77.409 1349.401 -71.37 1349.401 -60.939 L 1349.401 -59.109 L 1322.317 -59.109 C 1298.161 -58.926 1284.802 -47.946 1284.802 -29.463 Z M 1311.154 -31.293 C 1311.154 -39.162 1316.461 -42.456 1327.258 -42.456 L 1349.401 -42.456 L 1349.401 -33.672 C 1347.754 -25.254 1338.421 -18.849 1326.526 -18.849 C 1317.01 -18.849 1311.154 -23.79 1311.154 -31.293 Z M 1435.408 -12.627 C 1446.571 -3.66 1462.126 1.098 1478.047 1.098 C 1500.373 1.098 1518.124 -9.516 1518.124 -29.646 C 1518.307 -64.416 1466.335 -56.913 1466.335 -71.736 C 1466.335 -76.86 1471.093 -79.056 1477.681 -79.056 C 1485.916 -79.056 1496.896 -75.579 1507.693 -69.54 L 1517.392 -88.755 C 1506.412 -95.709 1492.504 -99.735 1478.962 -99.735 C 1457.551 -99.735 1440.166 -89.304 1440.166 -68.991 C 1440.166 -34.404 1491.223 -42.822 1491.223 -27.084 C 1491.223 -21.777 1485.916 -19.398 1478.779 -19.398 C 1467.982 -19.398 1454.806 -23.79 1444.558 -31.659 Z M 1528.551 -48.861 C 1528.551 -19.032 1548.498 1.098 1579.974 1.098 C 1597.725 1.098 1612.182 -5.307 1622.064 -16.287 L 1607.241 -31.293 C 1600.47 -24.522 1591.686 -20.862 1582.353 -20.862 C 1569.726 -20.862 1560.21 -28.182 1556.916 -40.626 L 1627.554 -40.626 C 1629.933 -76.494 1613.829 -99.369 1579.242 -99.369 C 1549.23 -99.369 1528.551 -79.239 1528.551 -48.861 Z M 1556.367 -57.279 C 1558.563 -70.272 1566.981 -78.69 1579.425 -78.69 C 1592.418 -78.69 1600.836 -70.272 1601.202 -57.279 Z M 1646.209 0 L 1674.391 0 L 1674.391 -47.397 C 1674.391 -64.05 1686.835 -74.847 1706.965 -73.017 L 1706.965 -99.552 C 1692.325 -99.369 1681.162 -92.781 1674.391 -80.703 L 1674.391 -98.454 L 1646.209 -98.454 Z M 1712.639 -98.271 L 1749.971 0 L 1778.885 0 L 1816.034 -98.454 L 1788.035 -98.454 L 1764.977 -26.718 L 1741.736 -98.454 Z M 1827.383 -126.453 C 1827.383 -117.303 1833.605 -110.715 1842.572 -110.715 C 1851.539 -110.715 1857.761 -117.303 1857.761 -126.453 C 1857.761 -135.603 1851.539 -142.191 1842.572 -142.191 C 1833.605 -142.191 1827.383 -135.603 1827.383 -126.453 Z M 1828.481 0 L 1856.663 0 L 1856.663 -98.454 L 1828.481 -98.454 Z M 1875.324 -48.861 C 1875.324 -19.032 1895.637 1.098 1925.466 1.098 C 1945.596 1.098 1960.968 -6.954 1969.203 -20.679 L 1949.805 -33.855 C 1944.864 -26.169 1936.995 -22.326 1926.93 -22.326 C 1913.205 -22.326 1903.506 -33.123 1903.506 -49.044 C 1903.506 -64.782 1913.205 -75.396 1926.93 -75.396 C 1936.629 -75.579 1944.132 -71.553 1949.439 -64.965 L 1968.471 -78.69 C 1959.687 -91.866 1944.681 -99.369 1925.832 -99.369 C 1895.637 -99.369 1875.324 -79.056 1875.324 -48.861 Z M 1975.054 -48.861 C 1975.054 -19.032 1995.001 1.098 2026.477 1.098 C 2044.228 1.098 2058.685 -5.307 2068.567 -16.287 L 2053.744 -31.293 C 2046.973 -24.522 2038.189 -20.862 2028.856 -20.862 C 2016.229 -20.862 2006.713 -28.182 2003.419 -40.626 L 2074.057 -40.626 C 2076.436 -76.494 2060.332 -99.369 2025.745 -99.369 C 1995.733 -99.369 1975.054 -79.239 1975.054 -48.861 Z M 2002.87 -57.279 C 2005.066 -70.272 2013.484 -78.69 2025.928 -78.69 C 2038.921 -78.69 2047.339 -70.272 2047.705 -57.279 Z" transform="matrix(1, 0, 0, 1, 1340.540039, 1469)" style="white-space: pre;"/>
    <g clip-path="url(#clip1)">
      <g clip-path="url(#clip2)">
        <g clip-path="url(#clip3)">
          <path d="M1286.28 1336.97 1276.97 1324.37 1277.26 1320.39C1277.61 1315.68 1275.39 1311.15 1271.46 1308.52L1258.8 1300.08C1255.36 1297.78 1251.3 1296.56 1247.16 1296.57 1246.85 1296.57 1246.55 1296.62 1246.26 1296.7L1244.86 1297.09 1235.71 1287.95C1234.4 1286.62 1232.27 1286.59 1230.92 1287.88 1227.2 1291.58 1225.85 1297.04 1227.42 1302.04L1168.69 1318.69C1166.94 1319.25 1165.13 1319.56 1163.3 1319.62L1074.77 1319.9 1050.96 1319.96C1029.65 1319.98 1012.37 1337.26 1012.35 1358.58L1012.35 1383.55C1012.35 1396.84 1001.57 1407.62 988.285 1407.62L981.489 1407.62C979.762 1407.58 978.255 1408.78 977.914 1410.48 977.595 1412.35 978.854 1414.12 980.725 1414.44 980.917 1414.47 981.11 1414.49 981.304 1414.49L988.285 1414.49C1005.37 1414.49 1019.22 1400.64 1019.22 1383.55L1019.22 1358.58C1019.25 1341.05 1033.46 1326.84 1050.99 1326.83L1081.31 1326.75C1074.78 1350.71 1079.82 1367.16 1080.05 1367.89 1080.5 1369.32 1081.83 1370.3 1083.33 1370.3 1083.67 1370.3 1084.02 1370.24 1084.36 1370.14 1086.17 1369.57 1087.18 1367.64 1086.61 1365.83 1086.55 1365.67 1081.76 1349.63 1088.47 1326.74L1115.53 1326.66C1112.42 1335.43 1111.32 1344.79 1112.32 1354.04 1112.6 1355.69 1114.03 1356.9 1115.7 1356.9 1115.89 1356.9 1116.08 1356.89 1116.27 1356.86 1118.14 1356.55 1119.41 1354.78 1119.1 1352.91 1118.28 1343.98 1119.55 1334.98 1122.82 1326.63L1158.2 1326.53C1153.89 1340.34 1153.52 1355.09 1157.14 1369.1 1157.66 1370.93 1159.56 1371.99 1161.39 1371.47 1163.21 1370.95 1164.27 1369.04 1163.75 1367.22 1163.69 1367 1157.68 1345.19 1165.69 1326.28 1167.38 1326.11 1169.05 1325.78 1170.67 1325.29L1204.82 1315.61C1199.91 1326.13 1198.5 1337.96 1200.82 1349.34 1201.18 1350.9 1202.57 1351.99 1204.16 1352 1204.42 1352 1204.68 1351.97 1204.94 1351.91 1206.79 1351.48 1207.94 1349.63 1207.52 1347.78 1207.52 1347.78 1207.52 1347.78 1207.52 1347.78 1207.47 1347.57 1202.94 1326.95 1214.92 1312.74L1233.28 1307.53C1235.11 1307.01 1236.17 1305.11 1235.65 1303.29 1235.53 1302.88 1235.34 1302.5 1235.08 1302.16 1233.75 1300.38 1233.32 1298.09 1233.9 1295.95 1233.91 1295.93 1233.93 1295.92 1233.95 1295.94 1233.95 1295.94 1233.96 1295.94 1233.96 1295.95L1241.43 1303.41C1242.31 1304.29 1243.59 1304.62 1244.79 1304.28L1247.64 1303.48C1250.27 1303.56 1252.81 1304.38 1254.99 1305.83L1267.65 1314.27C1269.52 1315.52 1270.57 1317.67 1270.4 1319.91L1270.01 1325.16C1269.95 1325.99 1270.19 1326.8 1270.68 1327.47L1280.77 1341.09C1281.78 1342.43 1281.88 1344.24 1281.04 1345.69L1273.77 1346.48C1271.88 1346.7 1270.53 1348.4 1270.74 1350.29 1270.78 1350.64 1270.87 1350.98 1271.02 1351.3L1272.82 1355.31C1272.28 1356.19 1271.48 1356.9 1270.54 1357.34 1268.13 1358 1265.55 1357.63 1263.42 1356.3L1247.56 1350.83C1244.77 1349.87 1241.68 1350.32 1239.28 1352.04L1229 1359.4C1225.85 1361.65 1223.08 1364.39 1220.78 1367.5 1218.52 1370.61 1216.92 1374.16 1216.11 1377.91L1213.04 1391.58C1209.06 1403.69 1195.68 1406.11 1195.11 1406.21 1193.67 1406.46 1192.54 1407.61 1192.33 1409.06 1192.27 1409.25 1192.24 1412.87 1192.24 1413.03L1192.24 1454.19C1192.24 1456.09 1193.78 1457.62 1195.68 1457.62L1199.12 1457.62C1201.02 1457.62 1202.55 1459.16 1202.55 1461.06L1202.55 1464.5 1185.37 1464.5C1181.57 1464.5 1178.49 1461.42 1178.49 1457.62L1178.49 1409.5 1178.49 1409.5C1178.89 1408.05 1178.03 1406.55 1176.58 1406.15 1176.3 1406.08 1176.01 1406.05 1175.71 1406.06 1169.58 1406.06 1163.84 1406.13 1158.48 1406.19 1154.53 1406.22 1150.83 1406.26 1147.29 1406.28 1138.06 1391.19 1135.91 1369.01 1135.89 1368.78 1135.72 1366.88 1134.04 1365.49 1132.15 1365.66 1130.26 1365.83 1128.87 1367.51 1129.04 1369.4 1130.37 1382.18 1133.88 1394.64 1139.39 1406.25 1115.78 1405.98 1102.1 1403.5 1091.84 1390.21 1090.6 1388.87 1088.57 1388.6 1087.03 1389.59L1086.7 1389.88 1072.31 1404.25C1059.36 1386.96 1061.31 1355.78 1061.31 1355.47 1061.42 1353.57 1059.97 1351.95 1058.08 1351.84 1056.22 1351.74 1054.61 1353.13 1054.46 1354.99 1054.36 1356.42 1052.23 1389.92 1067.38 1409.17L1048.38 1428.14C1045.64 1430.9 1044.7 1434.97 1045.94 1438.65L1050.33 1451.84C1050.89 1453.17 1052.15 1454.08 1053.6 1454.19 1056.13 1454.19 1058.18 1456.24 1058.18 1458.77L1058.18 1461.06 1042.33 1461.06C1040.89 1461.06 1039.61 1460.17 1039.11 1458.82L1029.48 1432.81 1034 1415C1034.07 1414.72 1034.11 1414.44 1034.11 1414.15L1034.11 1361.37C1034.3 1352.72 1038.57 1344.66 1045.63 1339.65 1047.23 1338.62 1047.68 1336.48 1046.65 1334.89 1045.61 1333.29 1043.48 1332.84 1041.88 1333.87 1032.89 1340.17 1027.44 1350.39 1027.23 1361.37L1027.23 1413.72 1022.57 1432.16C1022.4 1432.84 1022.43 1433.54 1022.67 1434.19L1032.66 1461.2C1034.17 1465.24 1038.02 1467.93 1042.33 1467.94L1061.61 1467.94C1063.51 1467.94 1065.05 1466.4 1065.05 1464.5L1065.05 1458.77C1065.04 1453.45 1061.36 1448.83 1056.17 1447.63L1052.45 1436.48C1052.04 1435.26 1052.35 1433.91 1053.25 1432.99L1088.88 1397.4C1101.46 1411.35 1118.06 1413.16 1144.65 1413.16 1149 1413.16 1153.63 1413.11 1158.54 1413.06 1162.67 1413.02 1167.05 1412.98 1171.61 1412.95L1171.61 1457.62C1171.61 1465.22 1177.76 1471.37 1185.36 1471.37L1205.98 1471.37C1207.88 1471.37 1209.42 1469.84 1209.42 1467.94L1209.42 1461.06C1209.42 1455.37 1204.8 1450.75 1199.11 1450.75L1199.11 1412.3C1204.26 1410.79 1208.98 1408.06 1212.86 1404.35L1212.86 1454.19C1212.86 1456.09 1214.4 1457.62 1216.29 1457.62L1219.73 1457.62C1221.63 1457.62 1223.17 1459.16 1223.17 1461.06L1223.17 1464.5 1216.87 1464.5C1215.14 1464.46 1213.63 1465.67 1213.29 1467.36 1212.97 1469.23 1214.23 1471.01 1216.1 1471.33 1216.29 1471.36 1216.49 1471.37 1216.68 1471.37L1226.61 1471.37C1228.51 1471.37 1230.04 1469.84 1230.04 1467.94L1230.04 1461.06C1230.04 1455.37 1225.43 1450.75 1219.73 1450.75L1219.73 1393.05 1222.8 1379.44C1223.41 1376.61 1224.61 1373.94 1226.31 1371.6 1228.18 1369.06 1230.43 1366.83 1232.99 1365L1243.27 1357.64C1243.86 1357.22 1244.62 1357.11 1245.31 1357.34L1260.94 1362.72C1264.71 1364.75 1269.17 1365.1 1273.22 1363.68 1276.19 1362.33 1278.54 1359.9 1279.79 1356.88 1280.19 1355.98 1280.19 1354.95 1279.79 1354.05L1279.23 1352.8 1283.18 1352.37C1284.01 1352.27 1284.78 1351.89 1285.36 1351.29 1289.14 1347.39 1289.53 1341.32 1286.28 1336.97Z"/>
          <path d="M1080.18 1447.61 1073.65 1429.4C1073.07 1427.67 1071.3 1426.66 1069.52 1427.03 1067.68 1427.49 1066.56 1429.35 1067.02 1431.2 1067.05 1431.31 1067.08 1431.42 1067.12 1431.53L1074.41 1451.92C1074.9 1453.29 1076.2 1454.2 1077.65 1454.2 1080.18 1454.2 1082.23 1456.25 1082.23 1458.78L1082.23 1461.06 1072.41 1461.06C1070.69 1461.02 1069.18 1462.23 1068.84 1463.92 1068.52 1465.79 1069.78 1467.57 1071.65 1467.89 1071.84 1467.92 1072.03 1467.94 1072.22 1467.94L1085.66 1467.94C1087.56 1467.94 1089.1 1466.4 1089.1 1464.5L1089.1 1458.77C1089.09 1453.43 1085.39 1448.8 1080.18 1447.61Z"/>
          <path d="M1264.42 1321.84C1264.42 1324.69 1262.11 1327 1259.26 1327 1256.41 1327 1254.1 1324.69 1254.1 1321.84 1254.1 1319 1256.41 1316.69 1259.26 1316.69 1262.11 1316.69 1264.42 1319 1264.42 1321.84Z"/>
        </g>
      </g>
    </g>
  </g>
</svg>