<?xml version="1.0" encoding="utf-8"?>
<svg viewBox="381.097 311.799 3931.583 750.701" xmlns="http://www.w3.org/2000/svg">
  <defs>
    <clipPath id="clip0">
      <rect x="-46" y="421" width="4646" height="1330"/>
    </clipPath>
  </defs>
  <g clip-path="url(#clip0)" transform="matrix(1, 0, 0, 1, 46, -421)">
    <path d="M 764.664 -56.337 Q 706.428 -56.97 647.559 -62.667 Q 588.69 -68.364 532.037 -76.593 Q 475.383 -84.822 421.895 -94.634 Q 368.406 -104.445 320.298 -113.94 Q 266.493 -124.701 220.284 -133.247 Q 174.075 -141.792 136.095 -145.59 Q 60.135 -153.186 36.714 -136.095 Q 27.852 -129.765 25.953 -117.105 Q 25.32 -112.041 21.206 -108.56 Q 17.091 -105.078 12.027 -105.711 Q 6.963 -106.977 3.482 -110.775 Q 0 -114.573 1.266 -119.637 Q 3.165 -143.058 22.155 -156.984 Q 38.613 -169.011 67.098 -171.86 Q 95.583 -174.708 133.88 -171.227 Q 172.176 -167.745 220.601 -158.883 Q 269.025 -150.021 325.362 -139.26 Q 376.635 -129.132 431.706 -119.004 Q 486.777 -108.876 544.697 -100.647 Q 602.616 -92.418 662.118 -87.038 Q 721.62 -81.657 780.489 -81.657 Q 835.56 -81.657 889.365 -87.354 Q 943.17 -93.051 994.443 -106.028 Q 1045.716 -119.004 1093.508 -140.21 Q 1141.299 -161.415 1184.343 -193.065 Q 1188.774 -196.23 1193.838 -195.281 Q 1198.902 -194.331 1202.067 -189.9 Q 1205.232 -185.469 1204.599 -180.405 Q 1203.966 -175.341 1199.535 -172.176 Q 1111.548 -108.243 993.81 -79.758 Q 898.227 -56.337 779.856 -56.337 Z M 1379.295 0 Q 1360.305 0 1347.012 -10.445 Q 1333.719 -20.889 1325.173 -36.398 Q 1316.628 -51.906 1311.247 -69.947 Q 1305.867 -87.987 1303.335 -103.179 Q 1300.17 -89.886 1294.789 -72.162 Q 1289.409 -54.438 1280.863 -38.297 Q 1272.318 -22.155 1260.291 -11.078 Q 1248.264 0 1231.806 0 Q 1215.348 0 1204.903 -10.761 Q 1194.459 -21.522 1188.445 -38.613 Q 1182.432 -55.704 1180.216 -76.91 Q 1178.001 -98.115 1178.001 -119.004 Q 1178.001 -137.361 1179.267 -154.136 Q 1180.533 -170.91 1181.799 -182.937 Q 1182.432 -188.001 1185.913 -191.483 Q 1189.395 -194.964 1195.092 -194.964 Q 1207.119 -194.964 1207.119 -182.304 Q 1205.22 -169.011 1204.27 -154.769 Q 1203.321 -140.526 1203.321 -122.169 Q 1203.321 -105.711 1204.587 -88.304 Q 1205.853 -70.896 1209.018 -56.97 Q 1212.183 -43.044 1217.563 -34.182 Q 1222.944 -25.32 1231.173 -25.32 Q 1248.897 -25.32 1266.621 -68.997 Q 1284.345 -112.674 1294.473 -206.358 Q 1294.473 -211.422 1297.954 -214.587 Q 1301.436 -217.752 1306.5 -217.752 Q 1311.564 -217.752 1315.045 -214.587 Q 1318.527 -211.422 1319.16 -206.358 Q 1320.426 -195.597 1321.692 -178.19 Q 1322.958 -160.782 1325.173 -140.526 Q 1327.389 -120.27 1331.187 -99.698 Q 1334.985 -79.125 1341.315 -62.667 Q 1347.645 -46.209 1356.823 -35.765 Q 1366.002 -25.32 1379.295 -25.32 Q 1396.386 -25.32 1414.743 -41.462 Q 1433.1 -57.603 1450.824 -81.974 Q 1468.548 -106.344 1484.373 -134.513 Q 1500.198 -162.681 1512.225 -187.368 Q 1516.023 -194.331 1523.619 -194.331 Q 1528.683 -194.331 1532.164 -190.217 Q 1535.646 -186.102 1535.646 -181.038 Q 1535.646 -179.772 1535.013 -176.924 Q 1534.38 -174.075 1529.949 -165.846 Q 1519.188 -145.59 1503.363 -117.105 Q 1487.538 -88.62 1468.231 -62.667 Q 1448.925 -36.714 1426.137 -18.357 Q 1403.349 0 1379.295 0 Z M 1511.588 -182.937 Q 1511.588 -188.001 1515.386 -191.483 Q 1519.184 -194.964 1524.881 -194.964 Q 1529.945 -194.964 1532.794 -191.166 Q 1535.642 -187.368 1536.908 -181.671 Q 1539.44 -169.011 1541.656 -153.819 Q 1543.871 -138.627 1545.137 -125.334 Q 1547.669 -136.728 1551.784 -154.452 Q 1555.898 -172.176 1561.912 -188.951 Q 1567.925 -205.725 1576.154 -217.752 Q 1584.383 -229.779 1595.144 -229.779 Q 1602.74 -229.779 1607.171 -223.449 Q 1611.602 -217.119 1614.451 -206.358 Q 1617.299 -195.597 1619.198 -181.355 Q 1621.097 -167.112 1624.262 -151.287 Q 1628.06 -129.132 1633.124 -106.977 Q 1638.188 -84.822 1644.835 -66.465 Q 1651.481 -48.108 1659.71 -36.714 Q 1667.939 -25.32 1678.7 -25.32 Q 1695.791 -25.32 1714.148 -41.462 Q 1732.505 -57.603 1750.229 -81.974 Q 1767.953 -106.344 1783.778 -134.513 Q 1799.603 -162.681 1811.63 -187.368 Q 1815.428 -194.331 1823.024 -194.331 Q 1828.088 -194.331 1831.57 -190.217 Q 1835.051 -186.102 1835.051 -181.038 Q 1835.051 -179.772 1834.418 -176.924 Q 1833.785 -174.075 1829.354 -165.846 Q 1818.593 -145.59 1802.768 -117.105 Q 1786.943 -88.62 1767.637 -62.667 Q 1748.33 -36.714 1725.542 -18.357 Q 1702.754 0 1678.7 0 Q 1663.508 0 1651.798 -9.812 Q 1640.087 -19.623 1631.542 -35.448 Q 1622.996 -51.273 1616.666 -71.529 Q 1610.336 -91.785 1605.589 -112.991 Q 1600.841 -134.196 1597.676 -154.769 Q 1594.511 -175.341 1591.346 -191.799 Q 1582.484 -171.543 1575.838 -146.54 Q 1569.191 -121.536 1564.444 -96.849 Q 1559.696 -72.162 1557.164 -49.691 Q 1554.632 -27.219 1553.999 -12.027 Q 1552.733 -1.266 1541.339 0 Q 1529.945 0 1528.679 -12.027 Q 1528.679 -12.027 1527.73 -28.485 Q 1526.78 -44.943 1524.881 -69.947 Q 1522.982 -94.95 1519.817 -125.018 Q 1516.652 -155.085 1511.588 -182.937 Z M 1769.217 -301.941 Q 1761.621 -301.941 1758.14 -305.739 Q 1754.658 -309.537 1754.658 -314.601 Q 1754.658 -319.032 1757.19 -322.514 Q 1759.722 -325.995 1765.419 -327.261 L 1812.894 -332.958 Q 1816.059 -381.699 1823.339 -411.45 Q 1830.618 -441.201 1847.076 -441.201 Q 1858.47 -441.201 1865.433 -430.757 Q 1872.396 -420.312 1875.878 -405.753 Q 1879.359 -391.194 1880.309 -376.319 Q 1881.258 -361.443 1881.258 -352.581 Q 1881.258 -349.416 1880.942 -346.884 Q 1880.625 -344.352 1880.625 -341.82 L 1925.568 -347.517 Q 1931.898 -347.517 1935.063 -343.719 Q 1938.228 -339.921 1938.228 -334.857 Q 1938.228 -330.426 1935.696 -326.945 Q 1933.164 -323.463 1927.467 -322.197 L 1878.726 -315.867 Q 1876.194 -294.978 1871.447 -274.406 Q 1866.699 -253.833 1860.686 -236.426 Q 1854.672 -219.018 1848.659 -205.092 Q 1842.645 -191.166 1836.948 -182.937 Q 1836.948 -164.58 1839.48 -137.678 Q 1842.012 -110.775 1847.709 -85.772 Q 1853.406 -60.768 1862.585 -43.044 Q 1871.763 -25.32 1885.056 -25.32 Q 1902.147 -25.32 1920.504 -41.462 Q 1938.861 -57.603 1956.585 -81.974 Q 1974.309 -106.344 1990.134 -134.513 Q 2005.959 -162.681 2017.986 -187.368 Q 2021.784 -194.331 2029.38 -194.331 Q 2034.444 -194.331 2037.926 -190.217 Q 2041.407 -186.102 2041.407 -181.038 Q 2041.407 -179.772 2040.774 -176.924 Q 2040.141 -174.075 2035.71 -165.846 Q 2024.949 -145.59 2009.124 -117.105 Q 1993.299 -88.62 1973.993 -62.667 Q 1954.686 -36.714 1931.898 -18.357 Q 1909.11 0 1885.056 0 Q 1866.699 0 1854.039 -12.344 Q 1841.379 -24.687 1833.15 -44.31 Q 1824.921 -63.933 1820.49 -88.304 Q 1816.059 -112.674 1813.844 -137.361 Q 1811.628 -162.048 1811.312 -184.203 Q 1810.995 -206.358 1810.995 -220.917 Q 1810.995 -243.705 1810.995 -265.227 Q 1810.995 -286.749 1811.628 -307.005 Z M 1847.709 -409.551 Q 1844.544 -392.46 1842.645 -374.103 Q 1840.746 -355.746 1839.48 -336.756 L 1855.938 -338.655 L 1855.938 -344.985 Q 1855.938 -373.47 1853.406 -388.029 Q 1850.874 -402.588 1847.709 -409.551 Z M 1836.948 -244.338 Q 1848.342 -278.52 1853.406 -312.702 L 1838.214 -310.803 Q 1836.948 -292.446 1836.948 -275.672 Q 1836.948 -258.897 1836.948 -244.338 Z M 2090.783 -25.32 Q 2107.874 -25.32 2126.231 -41.462 Q 2144.588 -57.603 2162.312 -81.974 Q 2180.036 -106.344 2195.861 -134.513 Q 2211.686 -162.681 2223.713 -187.368 Q 2227.511 -194.331 2235.107 -194.331 Q 2240.171 -194.331 2243.653 -190.217 Q 2247.134 -186.102 2247.134 -181.038 Q 2247.134 -179.772 2246.501 -176.924 Q 2245.868 -174.075 2241.437 -165.846 Q 2230.676 -145.59 2214.851 -117.105 Q 2199.026 -88.62 2179.72 -62.667 Q 2160.413 -36.714 2137.625 -18.357 Q 2114.837 0 2090.783 0 Q 2065.463 0 2050.588 -16.142 Q 2035.712 -32.283 2028.116 -55.388 Q 2020.52 -78.492 2018.305 -104.129 Q 2016.089 -129.765 2016.089 -149.388 Q 2016.089 -158.25 2016.089 -166.163 Q 2016.089 -174.075 2016.722 -182.937 Q 2017.355 -188.001 2020.837 -191.483 Q 2024.318 -194.964 2030.015 -194.964 Q 2035.079 -194.964 2038.561 -191.166 Q 2042.042 -187.368 2042.042 -181.671 Q 2041.409 -173.442 2041.409 -165.53 Q 2041.409 -157.617 2041.409 -149.388 Q 2041.409 -139.26 2042.675 -118.688 Q 2043.941 -98.115 2048.689 -77.226 Q 2053.436 -56.337 2063.248 -40.829 Q 2073.059 -25.32 2090.783 -25.32 Z M 2014.823 -295.611 Q 2014.823 -298.776 2015.456 -300.359 Q 2016.089 -301.941 2016.089 -303.207 Q 2016.089 -305.106 2014.823 -306.689 Q 2013.557 -308.271 2013.557 -312.702 Q 2013.557 -317.133 2017.039 -321.248 Q 2020.52 -325.362 2026.217 -325.362 Q 2034.446 -325.362 2037.928 -318.083 Q 2041.409 -310.803 2041.409 -303.207 Q 2041.409 -296.877 2038.877 -289.914 Q 2036.345 -282.951 2027.483 -282.951 Q 2020.52 -282.951 2017.672 -286.749 Q 2014.823 -290.547 2014.823 -295.611 Z M 2246.503 -141.159 Q 2246.503 -133.563 2246.503 -125.651 Q 2246.503 -117.738 2247.769 -109.509 Q 2262.961 -151.287 2262.961 -176.607 Q 2262.328 -189.267 2259.796 -195.914 Q 2257.264 -202.56 2255.998 -203.826 Q 2249.035 -194.331 2247.769 -177.557 Q 2246.503 -160.782 2246.503 -141.159 Z M 2297.143 0 Q 2274.988 0 2260.429 -13.293 Q 2245.87 -26.586 2237.008 -48.425 Q 2228.146 -70.263 2224.664 -97.482 Q 2221.183 -124.701 2221.183 -153.186 Q 2221.183 -169.011 2223.082 -182.937 Q 2224.981 -196.863 2229.095 -207.308 Q 2233.21 -217.752 2240.173 -223.766 Q 2247.136 -229.779 2256.631 -229.779 Q 2267.392 -229.779 2277.836 -217.119 Q 2288.281 -204.459 2288.914 -175.974 Q 2288.914 -155.718 2281.318 -127.866 Q 2273.722 -100.014 2257.264 -65.199 Q 2263.594 -47.475 2273.089 -36.398 Q 2282.584 -25.32 2297.143 -25.32 Q 2314.234 -25.32 2332.591 -41.462 Q 2350.948 -57.603 2368.672 -81.974 Q 2386.396 -106.344 2402.221 -134.513 Q 2418.046 -162.681 2430.073 -187.368 Q 2433.871 -194.331 2441.467 -194.331 Q 2446.531 -194.331 2450.012 -190.217 Q 2453.494 -186.102 2453.494 -181.038 Q 2453.494 -179.772 2452.861 -176.924 Q 2452.228 -174.075 2447.797 -165.846 Q 2437.036 -145.59 2421.211 -117.105 Q 2405.386 -88.62 2386.079 -62.667 Q 2366.773 -36.714 2343.985 -18.357 Q 2321.197 0 2297.143 0 Z M 2595.913 -25.32 Q 2613.004 -25.32 2631.361 -41.462 Q 2649.718 -57.603 2667.442 -81.974 Q 2685.166 -106.344 2700.991 -134.513 Q 2716.816 -162.681 2728.843 -187.368 Q 2732.641 -194.331 2740.237 -194.331 Q 2745.301 -194.331 2748.782 -190.217 Q 2752.264 -186.102 2752.264 -181.038 Q 2752.264 -179.772 2751.631 -176.924 Q 2750.998 -174.075 2746.567 -165.846 Q 2735.806 -145.59 2719.981 -117.105 Q 2704.156 -88.62 2684.849 -62.667 Q 2665.543 -36.714 2642.755 -18.357 Q 2619.967 0 2595.913 0 Q 2573.758 0 2560.148 -16.142 Q 2546.539 -32.283 2538.31 -58.236 Q 2535.778 -49.374 2530.397 -39.246 Q 2525.017 -29.118 2517.104 -20.256 Q 2509.192 -11.394 2499.064 -5.381 Q 2488.936 0.633 2476.909 0.633 Q 2459.185 0.633 2446.208 -7.913 Q 2433.232 -16.458 2425.003 -30.384 Q 2416.774 -44.31 2412.976 -62.667 Q 2409.178 -81.024 2409.178 -100.647 Q 2409.178 -124.068 2414.558 -146.856 Q 2419.939 -169.644 2430.067 -188.001 Q 2440.195 -206.358 2455.07 -217.752 Q 2469.946 -229.146 2489.569 -229.146 Q 2506.66 -229.146 2521.852 -217.119 L 2521.852 -220.917 Q 2521.852 -266.493 2522.801 -306.689 Q 2523.751 -346.884 2527.549 -376.635 Q 2531.347 -406.386 2538.626 -423.794 Q 2545.906 -441.201 2557.933 -441.201 Q 2569.327 -441.201 2576.29 -430.757 Q 2583.253 -420.312 2586.734 -405.753 Q 2590.216 -391.194 2591.165 -376.319 Q 2592.115 -361.443 2592.115 -352.581 Q 2592.115 -327.261 2587.684 -301.625 Q 2583.253 -275.988 2576.606 -252.884 Q 2569.96 -229.779 2562.047 -211.422 Q 2554.135 -193.065 2547.805 -182.937 Q 2547.805 -164.58 2550.337 -137.678 Q 2552.869 -110.775 2558.566 -85.772 Q 2564.263 -60.768 2573.441 -43.044 Q 2582.62 -25.32 2595.913 -25.32 Z M 2476.909 -24.687 Q 2490.202 -24.687 2499.697 -36.081 Q 2509.192 -47.475 2514.889 -62.984 Q 2520.586 -78.492 2523.434 -95.267 Q 2526.283 -112.041 2526.283 -122.802 Q 2526.283 -131.031 2525.333 -144.957 Q 2524.384 -158.883 2520.586 -171.86 Q 2516.788 -184.836 2508.875 -194.331 Q 2500.963 -203.826 2487.037 -203.826 Q 2475.643 -203.826 2466.148 -194.015 Q 2456.653 -184.203 2449.373 -168.378 Q 2442.094 -152.553 2438.296 -133.247 Q 2434.498 -113.94 2434.498 -94.95 Q 2434.498 -66.465 2444.626 -45.576 Q 2454.754 -24.687 2476.909 -24.687 Z M 2558.566 -409.551 Q 2555.401 -389.928 2553.185 -368.09 Q 2550.97 -346.251 2549.704 -324.413 Q 2548.438 -302.574 2548.121 -282.002 Q 2547.805 -261.429 2547.805 -244.338 Q 2556.667 -269.025 2561.731 -294.662 Q 2566.795 -320.298 2566.795 -344.985 Q 2566.795 -373.47 2564.263 -388.029 Q 2561.731 -402.588 2558.566 -409.551 Z M 3153.584 -56.97 Q 3035.213 -56.97 2939.63 -80.391 Q 2821.892 -108.876 2733.905 -172.809 Q 2729.474 -175.974 2728.841 -181.038 Q 2728.208 -186.102 2731.373 -190.533 Q 2734.538 -194.964 2739.602 -195.914 Q 2744.666 -196.863 2749.097 -193.698 Q 2791.508 -162.048 2839.299 -140.843 Q 2887.091 -119.637 2938.364 -106.661 Q 2989.637 -93.684 3043.758 -87.987 Q 3097.88 -82.29 3152.951 -82.29 Q 3211.82 -82.29 3271.322 -87.671 Q 3330.824 -93.051 3388.743 -101.28 Q 3446.663 -109.509 3501.734 -119.637 Q 3556.805 -129.765 3608.078 -139.893 Q 3664.415 -150.654 3712.839 -159.516 Q 3761.264 -168.378 3799.56 -171.86 Q 3837.857 -175.341 3866.342 -172.493 Q 3894.827 -169.644 3911.285 -157.617 Q 3930.275 -143.691 3932.174 -120.27 Q 3933.44 -115.206 3929.958 -111.408 Q 3926.477 -107.61 3921.413 -106.344 Q 3916.349 -105.711 3912.234 -109.193 Q 3908.12 -112.674 3907.487 -117.738 Q 3905.588 -130.398 3896.726 -136.728 Q 3873.305 -153.819 3797.345 -146.223 Q 3759.365 -142.425 3713.156 -133.88 Q 3666.947 -125.334 3613.142 -114.573 Q 3565.034 -105.078 3511.545 -95.267 Q 3458.057 -85.455 3401.403 -77.226 Q 3344.75 -68.997 3285.881 -63.3 Q 3227.012 -57.603 3168.776 -56.97 Z" transform="matrix(1, 0, 0, 1, 334.169006, 1174)" style="fill: rgb(12, 144, 178); white-space: pre;"/>
    <path d="M 1.464 -103.578 L 40.443 -103.578 L 40.443 0 L 69.357 0 L 69.357 -103.578 L 108.519 -103.578 L 108.519 -128.1 L 1.464 -128.1 Z M 124.068 0 L 152.982 0 L 152.982 -128.1 L 124.068 -128.1 Z M 181.341 0 L 208.974 0 L 208.974 -82.167 L 271.011 0 L 297.363 0 L 297.363 -128.1 L 269.913 -128.1 L 269.913 -45.75 L 207.693 -128.1 L 181.341 -128.1 Z M 355.006 -98.271 L 392.338 0 L 421.252 0 L 458.401 -98.454 L 430.402 -98.454 L 407.344 -26.718 L 384.103 -98.454 Z M 459.133 -48.861 C 459.133 -19.032 479.08 1.098 510.556 1.098 C 528.307 1.098 542.764 -5.307 552.646 -16.287 L 537.823 -31.293 C 531.052 -24.522 522.268 -20.862 512.935 -20.862 C 500.308 -20.862 490.792 -28.182 487.498 -40.626 L 558.136 -40.626 C 560.515 -76.494 544.411 -99.369 509.824 -99.369 C 479.812 -99.369 459.133 -79.239 459.133 -48.861 Z M 486.949 -57.279 C 489.145 -70.272 497.563 -78.69 510.007 -78.69 C 523 -78.69 531.418 -70.272 531.784 -57.279 Z M 576.801 0 L 604.983 0 L 604.983 -47.397 C 604.983 -64.05 617.427 -74.847 637.557 -73.017 L 637.557 -99.552 C 622.917 -99.369 611.754 -92.781 604.983 -80.703 L 604.983 -98.454 L 576.801 -98.454 Z M 651.828 -126.453 C 651.828 -117.303 658.05 -110.715 667.017 -110.715 C 675.984 -110.715 682.206 -117.303 682.206 -126.453 C 682.206 -135.603 675.984 -142.191 667.017 -142.191 C 658.05 -142.191 651.828 -135.603 651.828 -126.453 Z M 652.926 0 L 681.108 0 L 681.108 -98.454 L 652.926 -98.454 Z M 700.323 -75.396 L 713.499 -75.396 L 713.499 0 L 741.498 0 L 741.498 -75.396 L 764.739 -75.396 L 764.739 -94.794 L 741.498 -94.794 L 741.498 -102.297 C 741.498 -110.349 746.439 -113.826 753.21 -113.643 C 757.602 -113.643 762.909 -112.179 767.667 -109.8 L 768.765 -133.224 C 763.641 -135.603 756.504 -137.067 749.733 -137.067 C 730.335 -137.067 713.499 -125.721 713.499 -103.395 L 713.499 -94.794 L 700.323 -94.794 Z M 775.17 -126.453 C 775.17 -117.303 781.575 -110.715 790.359 -110.715 C 799.326 -110.715 805.731 -117.303 805.731 -126.453 C 805.731 -135.603 799.326 -142.191 790.359 -142.191 C 781.575 -142.191 775.17 -135.603 775.17 -126.453 Z M 776.451 0 L 804.45 0 L 804.45 -98.454 L 776.451 -98.454 Z M 823.11 -48.861 C 823.11 -19.032 843.423 1.098 873.252 1.098 C 893.382 1.098 908.754 -6.954 916.989 -20.679 L 897.591 -33.855 C 892.65 -26.169 884.781 -22.326 874.716 -22.326 C 860.991 -22.326 851.292 -33.123 851.292 -49.044 C 851.292 -64.782 860.991 -75.396 874.716 -75.396 C 884.415 -75.579 891.918 -71.553 897.225 -64.965 L 916.257 -78.69 C 907.473 -91.866 892.467 -99.369 873.618 -99.369 C 843.423 -99.369 823.11 -79.056 823.11 -48.861 Z M 924.303 -29.463 C 924.303 -11.529 937.113 1.281 958.158 1.281 C 971.883 1.281 982.497 -3.294 989.085 -11.529 L 989.085 0 L 1016.718 0 L 1016.535 -64.233 C 1016.352 -86.376 1001.163 -99.552 974.811 -99.552 C 957.609 -99.552 944.982 -95.526 930.342 -88.206 L 939.126 -68.808 C 949.374 -74.481 959.622 -77.409 968.406 -77.409 C 981.948 -77.409 988.902 -71.37 988.902 -60.939 L 988.902 -59.109 L 961.818 -59.109 C 937.662 -58.926 924.303 -47.946 924.303 -29.463 Z M 950.655 -31.293 C 950.655 -39.162 955.962 -42.456 966.759 -42.456 L 988.902 -42.456 L 988.902 -33.672 C 987.255 -25.254 977.922 -18.849 966.027 -18.849 C 956.511 -18.849 950.655 -23.79 950.655 -31.293 Z M 1031.726 -74.664 L 1045.451 -74.664 L 1045.451 -29.097 C 1045.451 -8.784 1058.81 1.281 1076.378 1.281 C 1085.528 1.281 1094.678 -1.281 1101.998 -5.49 L 1096.142 -26.169 C 1091.018 -23.79 1086.626 -22.509 1082.966 -22.509 C 1076.927 -22.326 1073.45 -25.62 1073.45 -33.855 L 1073.45 -74.481 L 1100.168 -74.481 L 1100.168 -94.062 L 1073.45 -94.062 L 1073.45 -121.146 L 1045.451 -121.146 L 1045.451 -94.062 L 1031.726 -94.062 Z M 1117.915 -126.453 C 1117.915 -117.303 1124.137 -110.715 1133.104 -110.715 C 1142.071 -110.715 1148.293 -117.303 1148.293 -126.453 C 1148.293 -135.603 1142.071 -142.191 1133.104 -142.191 C 1124.137 -142.191 1117.915 -135.603 1117.915 -126.453 Z M 1119.013 0 L 1147.195 0 L 1147.195 -98.454 L 1119.013 -98.454 Z M 1165.86 -49.227 C 1165.86 -19.215 1187.088 1.098 1218.747 1.098 C 1250.223 1.098 1271.451 -19.215 1271.451 -49.227 C 1271.451 -79.422 1250.223 -99.369 1218.747 -99.369 C 1187.088 -99.369 1165.86 -79.422 1165.86 -49.227 Z M 1194.225 -48.861 C 1194.225 -64.965 1204.107 -75.945 1218.747 -75.945 C 1233.204 -75.945 1243.269 -64.965 1243.269 -48.861 C 1243.269 -32.757 1233.204 -21.777 1218.747 -21.777 C 1204.107 -21.777 1194.225 -32.757 1194.225 -48.861 Z M 1290.115 0 L 1318.297 0 L 1318.297 -48.495 C 1318.297 -62.952 1326.715 -73.566 1340.806 -73.749 C 1352.884 -73.749 1360.204 -66.063 1360.204 -53.619 L 1360.204 0 L 1388.386 0 L 1388.386 -61.854 C 1388.386 -84.912 1374.295 -99.552 1352.335 -99.552 C 1336.963 -99.369 1325.251 -93.513 1318.297 -81.252 L 1318.297 -98.454 L 1290.115 -98.454 Z" transform="matrix(1, 0, 0, 1, 1523, 1469)" style="white-space: pre;"/>
    <path d="M2998.5 1308.5C2998.5 1289.17 3014.17 1273.5 3033.5 1273.5L3655.5 1273.5C3674.83 1273.5 3690.5 1289.17 3690.5 1308.5L3690.5 1448.5C3690.5 1467.83 3674.83 1483.5 3655.5 1483.5L3033.5 1483.5C3014.17 1483.5 2998.5 1467.83 2998.5 1448.5Z" stroke="#0C90B2" stroke-width="4.58333" stroke-miterlimit="8" fill="#A00338" fill-rule="evenodd"/>
    <path d="M 25.842 0.876 Q 21.316 0.876 17.191 -0.62 Q 13.067 -2.117 9.964 -5.146 Q 6.862 -8.176 5.037 -12.738 Q 3.212 -17.301 3.212 -23.36 Q 3.212 -29.346 5.11 -33.981 Q 7.008 -38.617 10.183 -41.792 Q 13.359 -44.968 17.483 -46.647 Q 21.608 -48.326 26.134 -48.326 Q 30.879 -48.326 34.602 -46.464 Q 38.325 -44.603 40.88 -42.048 L 34.31 -34.018 Q 32.558 -35.551 30.696 -36.536 Q 28.835 -37.522 26.426 -37.522 Q 24.309 -37.522 22.447 -36.573 Q 20.586 -35.624 19.162 -33.872 Q 17.739 -32.12 16.899 -29.565 Q 16.06 -27.01 16.06 -23.798 Q 16.06 -17.082 18.87 -13.505 Q 21.681 -9.928 26.28 -9.928 Q 29.054 -9.928 31.207 -11.132 Q 33.361 -12.337 34.894 -14.016 L 41.464 -6.132 Q 38.398 -2.628 34.419 -0.876 Q 30.441 0.876 25.842 0.876 Z M 64.821 0.876 Q 59.857 0.876 55.805 -0.803 Q 51.754 -2.482 48.87 -5.657 Q 45.987 -8.833 44.381 -13.468 Q 42.775 -18.104 42.775 -23.944 Q 42.775 -29.784 44.381 -34.346 Q 45.987 -38.909 48.87 -42.011 Q 51.754 -45.114 55.805 -46.72 Q 59.857 -48.326 64.821 -48.326 Q 69.712 -48.326 73.8 -46.72 Q 77.888 -45.114 80.771 -41.975 Q 83.655 -38.836 85.261 -34.31 Q 86.867 -29.784 86.867 -23.944 Q 86.867 -18.104 85.261 -13.468 Q 83.655 -8.833 80.771 -5.657 Q 77.888 -2.482 73.8 -0.803 Q 69.712 0.876 64.821 0.876 Z M 64.821 -9.928 Q 69.128 -9.928 71.573 -13.687 Q 74.019 -17.447 74.019 -23.944 Q 74.019 -30.441 71.573 -33.981 Q 69.128 -37.522 64.821 -37.522 Q 60.514 -37.522 58.068 -33.981 Q 55.623 -30.441 55.623 -23.944 Q 55.623 -17.447 58.068 -13.687 Q 60.514 -9.928 64.821 -9.928 Z M 93.287 0 L 93.287 -47.45 L 106.135 -47.45 L 116.647 -26.28 L 121.173 -15.622 L 121.465 -15.622 Q 121.246 -17.52 120.954 -19.783 Q 120.662 -22.046 120.443 -24.418 Q 120.224 -26.791 120.042 -29.163 Q 119.859 -31.536 119.859 -33.726 L 119.859 -47.45 L 131.831 -47.45 L 131.831 0 L 118.983 0 L 108.471 -21.243 L 103.945 -31.828 L 103.653 -31.828 Q 104.091 -27.74 104.675 -22.922 Q 105.259 -18.104 105.259 -13.724 L 105.259 0 Z M 140.514 0 L 140.514 -47.45 L 171.466 -47.45 L 171.466 -36.938 L 153.07 -36.938 L 153.07 -27.886 L 168.838 -27.886 L 168.838 -17.374 L 153.07 -17.374 L 153.07 0 Z M 176.569 0 L 176.569 -47.45 L 189.125 -47.45 L 189.125 0 Z M 195.772 0 L 195.772 -47.45 L 209.788 -47.45 Q 215.19 -47.45 219.679 -46.136 Q 224.169 -44.822 227.381 -41.975 Q 230.593 -39.128 232.381 -34.675 Q 234.17 -30.222 234.17 -23.944 Q 234.17 -17.666 232.418 -13.14 Q 230.666 -8.614 227.49 -5.694 Q 224.315 -2.774 219.971 -1.387 Q 215.628 0 210.518 0 Z M 208.328 -10.074 L 209.058 -10.074 Q 211.613 -10.074 213.876 -10.694 Q 216.139 -11.315 217.781 -12.848 Q 219.424 -14.381 220.373 -17.082 Q 221.322 -19.783 221.322 -23.944 Q 221.322 -28.105 220.373 -30.733 Q 219.424 -33.361 217.781 -34.821 Q 216.139 -36.281 213.876 -36.828 Q 211.613 -37.376 209.058 -37.376 L 208.328 -37.376 Z M 240.663 0 L 240.663 -47.45 L 271.323 -47.45 L 271.323 -36.938 L 253.219 -36.938 L 253.219 -29.492 L 268.695 -29.492 L 268.695 -18.98 L 253.219 -18.98 L 253.219 -10.512 L 272.053 -10.512 L 272.053 0 Z M 279.131 0 L 279.131 -47.45 L 291.979 -47.45 L 302.491 -26.28 L 307.017 -15.622 L 307.309 -15.622 Q 307.09 -17.52 306.798 -19.783 Q 306.506 -22.046 306.287 -24.418 Q 306.068 -26.791 305.886 -29.163 Q 305.703 -31.536 305.703 -33.726 L 305.703 -47.45 L 317.675 -47.45 L 317.675 0 L 304.827 0 L 294.315 -21.243 L 289.789 -31.828 L 289.497 -31.828 Q 289.935 -27.74 290.519 -22.922 Q 291.103 -18.104 291.103 -13.724 L 291.103 0 Z M 335.41 0 L 335.41 -36.938 L 322.854 -36.938 L 322.854 -47.45 L 360.522 -47.45 L 360.522 -36.938 L 347.966 -36.938 L 347.966 0 Z M 365.483 0 L 365.483 -47.45 L 378.039 -47.45 L 378.039 0 Z M 396.943 -23.068 L 396.14 -19.783 L 404.9 -19.783 L 404.097 -23.068 Q 403.221 -26.499 402.345 -30.514 Q 401.469 -34.529 400.593 -38.106 L 400.301 -38.106 Q 399.498 -34.456 398.658 -30.477 Q 397.819 -26.499 396.943 -23.068 Z M 378.693 0 L 393.147 -47.45 L 408.331 -47.45 L 422.785 0 L 409.499 0 L 407.163 -10.074 L 393.877 -10.074 L 391.541 0 Z M 424.39 0 L 424.39 -47.45 L 436.946 -47.45 L 436.946 -10.512 L 454.904 -10.512 L 454.904 0 Z" transform="matrix(1, 0, 0, 1, 3114.320068, 1359)" style="fill: rgb(255, 255, 255); white-space: pre;"/>
    <path d="M 5.256 0 L 5.256 -47.45 L 22.63 -47.45 Q 26.499 -47.45 30.003 -46.683 Q 33.507 -45.917 36.135 -44.055 Q 38.763 -42.194 40.332 -39.164 Q 41.902 -36.135 41.902 -31.682 Q 41.902 -27.302 40.332 -24.163 Q 38.763 -21.024 36.135 -19.016 Q 33.507 -17.009 30.076 -16.023 Q 26.645 -15.038 22.922 -15.038 L 17.812 -15.038 L 17.812 0 Z M 17.812 -24.966 L 22.338 -24.966 Q 26.061 -24.966 27.849 -26.718 Q 29.638 -28.47 29.638 -31.682 Q 29.638 -34.894 27.667 -36.208 Q 25.696 -37.522 22.046 -37.522 L 17.812 -37.522 Z M 46.569 0 L 46.569 -47.45 L 64.527 -47.45 Q 68.323 -47.45 71.79 -46.72 Q 75.258 -45.99 77.849 -44.238 Q 80.441 -42.486 81.974 -39.529 Q 83.507 -36.573 83.507 -32.12 Q 83.507 -27.01 81.426 -23.652 Q 79.346 -20.294 75.842 -18.396 L 86.135 0 L 72.119 0 L 63.943 -15.914 L 59.125 -15.914 L 59.125 0 Z M 59.125 -25.842 L 63.651 -25.842 Q 71.243 -25.842 71.243 -32.12 Q 71.243 -35.186 69.308 -36.354 Q 67.374 -37.522 63.651 -37.522 L 59.125 -37.522 Z M 88.1 0 L 88.1 -47.45 L 100.656 -47.45 L 100.656 0 Z M 115.333 0 L 101.317 -47.45 L 114.603 -47.45 L 119.567 -26.718 Q 120.589 -22.922 121.319 -19.235 Q 122.049 -15.549 123.071 -11.68 L 123.363 -11.68 Q 124.385 -15.549 125.152 -19.235 Q 125.918 -22.922 126.867 -26.718 L 131.685 -47.45 L 144.533 -47.45 L 130.517 0 Z M 156.137 -23.068 L 155.334 -19.783 L 164.094 -19.783 L 163.291 -23.068 Q 162.415 -26.499 161.539 -30.514 Q 160.663 -34.529 159.787 -38.106 L 159.495 -38.106 Q 158.692 -34.456 157.853 -30.477 Q 157.013 -26.499 156.137 -23.068 Z M 137.887 0 L 152.341 -47.45 L 167.525 -47.45 L 181.979 0 L 168.693 0 L 166.357 -10.074 L 153.071 -10.074 L 150.735 0 Z M 188.613 0 L 188.613 -36.938 L 176.057 -36.938 L 176.057 -47.45 L 213.725 -47.45 L 213.725 -36.938 L 201.169 -36.938 L 201.169 0 Z M 218.686 0 L 218.686 -47.45 L 249.346 -47.45 L 249.346 -36.938 L 231.242 -36.938 L 231.242 -29.492 L 246.718 -29.492 L 246.718 -18.98 L 231.242 -18.98 L 231.242 -10.512 L 250.076 -10.512 L 250.076 0 Z M 271.756 0 L 271.756 -47.45 L 288.838 -47.45 Q 292.561 -47.45 295.846 -46.902 Q 299.131 -46.355 301.54 -45.041 Q 303.949 -43.727 305.373 -41.427 Q 306.796 -39.128 306.796 -35.624 Q 306.796 -34.091 306.358 -32.521 Q 305.92 -30.952 305.154 -29.528 Q 304.387 -28.105 303.292 -27.01 Q 302.197 -25.915 300.81 -25.404 L 300.81 -25.112 Q 304.241 -24.09 306.614 -21.425 Q 308.986 -18.761 308.986 -14.016 Q 308.986 -10.366 307.49 -7.701 Q 305.993 -5.037 303.475 -3.321 Q 300.956 -1.606 297.525 -0.803 Q 294.094 0 290.298 0 Z M 284.312 -28.908 L 288.546 -28.908 Q 291.612 -28.908 293.072 -30.222 Q 294.532 -31.536 294.532 -33.726 Q 294.532 -35.916 293.072 -36.865 Q 291.612 -37.814 288.546 -37.814 L 284.312 -37.814 Z M 284.312 -9.636 L 289.422 -9.636 Q 296.722 -9.636 296.722 -14.892 Q 296.722 -17.52 294.934 -18.615 Q 293.145 -19.71 289.422 -19.71 L 284.312 -19.71 Z M 314.678 0 L 314.678 -47.45 L 345.338 -47.45 L 345.338 -36.938 L 327.234 -36.938 L 327.234 -29.492 L 342.71 -29.492 L 342.71 -18.98 L 327.234 -18.98 L 327.234 -10.512 L 346.068 -10.512 L 346.068 0 Z M 362.199 0 L 362.199 -36.938 L 349.643 -36.938 L 349.643 -47.45 L 387.311 -47.45 L 387.311 -36.938 L 374.755 -36.938 L 374.755 0 Z M 401.614 -23.068 L 400.811 -19.783 L 409.571 -19.783 L 408.768 -23.068 Q 407.892 -26.499 407.016 -30.514 Q 406.14 -34.529 405.264 -38.106 L 404.972 -38.106 Q 404.169 -34.456 403.33 -30.477 Q 402.49 -26.499 401.614 -23.068 Z M 383.364 0 L 397.818 -47.45 L 413.002 -47.45 L 427.456 0 L 414.17 0 L 411.834 -10.074 L 398.548 -10.074 L 396.212 0 Z" transform="matrix(1, 0, 0, 1, 3126.929932, 1447)" style="fill: rgb(255, 255, 255); white-space: pre;"/>
  </g>
</svg>